<svg xmlns="http://www.w3.org/2000/svg" xmlns:xlink="http://www.w3.org/1999/xlink" width="432" height="194pt" viewBox="0 0 324 194"><g id="graph1" class="graph" transform="scale(1 1) rotate(0) translate(4 190)"><title>_anonymous_0</title><polygon fill="#fff" stroke="#fff" points="-4 5 -4 -190 321 -190 321 5 -4 5"/><g id="node1" class="node"><title>Symbol(x)_(1,)</title><ellipse cx="65" cy="-93" fill="none" stroke="#000" rx="65.054" ry="18.385"/><text x="65" y="-89.4" font-family="Times Roman,serif" font-size="14" text-anchor="middle">Symbol(&apos;x&apos;)</text></g><g id="node2" class="node"><title>Symbol(y)_(0, 1)</title><ellipse cx="103" cy="-19" fill="none" stroke="#000" rx="65.054" ry="18.385"/><text x="103" y="-15.4" font-family="Times Roman,serif" font-size="14" text-anchor="middle">Symbol(&apos;y&apos;)</text></g><g id="node3" class="node"><title>NegativeOne()_(0, 0)</title><ellipse cx="251" cy="-19" fill="none" stroke="#000" rx="65.054" ry="18.385"/><text x="251" y="-15.4" font-family="Times Roman,serif" font-size="14" text-anchor="middle">Integer(-1)</text></g><g id="node4" class="node"><title>Mul(NegativeOne(), Symbol(y))_(0,)</title><ellipse cx="177" cy="-93" fill="none" stroke="#000" rx="28.991" ry="18.385"/><text x="177" y="-89.4" font-family="Times Roman,serif" font-size="14" text-anchor="middle">Mul</text></g><g id="edge2" class="edge"><title>Mul(NegativeOne(), Symbol(y))_(0,)-&gt;Symbol(y)_(0, 1)</title><path fill="none" stroke="#000" d="M161.307,-77.3065C151.724,-67.7236 139.248,-55.248 128.297,-44.2972"/><polygon fill="#000" stroke="#000" points="130.56 -41.61 121.014 -37.014 125.61 -46.56 130.56 -41.61"/></g><g id="edge4" class="edge"><title>Mul(NegativeOne(), Symbol(y))_(0,)-&gt;NegativeOne()_(0, 0)</title><path fill="none" stroke="#000" d="M192.693,-77.3065C202.276,-67.7236 214.752,-55.248 225.703,-44.2972"/><polygon fill="#000" stroke="#000" points="228.39 -46.56 232.986 -37.014 223.44 -41.61 228.39 -46.56"/></g><g id="node5" class="node"><title>Add(Mul(NegativeOne(), Symbol(y)), Symbol(x))_()</title><ellipse cx="121" cy="-167" fill="none" stroke="#000" rx="29.907" ry="18.385"/><text x="121" y="-163.4" font-family="Times Roman,serif" font-size="14" text-anchor="middle">Add</text></g><g id="edge6" class="edge"><title>Add(Mul(NegativeOne(), Symbol(y)), Symbol(x))_()-&gt;Symbol(x)_(1,)</title><path fill="none" stroke="#000" d="M108.293,-150.208C101.435,-141.147 92.8126,-129.752 85.0712,-119.523"/><polygon fill="#000" stroke="#000" points="87.659 -117.142 78.834 -111.28 82.077 -121.366 87.659 -117.142"/></g><g id="edge8" class="edge"><title>Add(Mul(NegativeOne(), Symbol(y)), Symbol(x))_()-&gt;Mul(NegativeOne(), Symbol(y))_(0,)</title><path fill="none" stroke="#000" d="M133.707,-150.208C140.939,-140.652 150.134,-128.502 158.188,-117.859"/><polygon fill="#000" stroke="#000" points="161.099 -119.811 164.343 -109.725 155.518 -115.587 161.099 -119.811"/></g></g></svg>