<svg xmlns="http://www.w3.org/2000/svg" xmlns:xlink="http://www.w3.org/1999/xlink" width="574pt" height="194pt" viewBox="0 0 574 194"><g id="graph1" class="graph" transform="scale(1 1) rotate(0) translate(4 190)"><title>_anonymous_0</title><polygon fill="#fff" stroke="#fff" points="-4 5 -4 -190 571 -190 571 5 -4 5"/><g id="node1" class="node"><title>Symbol(x)_(0, 0)</title><ellipse cx="65" cy="-19" fill="none" stroke="#000" rx="65.054" ry="18.385"/><text x="65" y="-15.4" font-family="Times Roman,serif" font-size="14" text-anchor="middle">Symbol(&apos;x&apos;)</text></g><g id="node2" class="node"><title>Integer(2)_(1, 1)</title><ellipse cx="357" cy="-19" fill="none" stroke="#000" rx="60.811" ry="18.385"/><text x="357" y="-15.4" font-family="Times Roman,serif" font-size="14" text-anchor="middle">Integer(2)</text></g><g id="node3" class="node"><title>Symbol(y)_(0, 1)</title><ellipse cx="213" cy="-19" fill="none" stroke="#000" rx="65.054" ry="18.385"/><text x="213" y="-15.4" font-family="Times Roman,serif" font-size="14" text-anchor="middle">Symbol(&apos;y&apos;)</text></g><g id="node4" class="node"><title>Symbol(x)_(1, 0)</title><ellipse cx="501" cy="-19" fill="none" stroke="#000" rx="65.054" ry="18.385"/><text x="501" y="-15.4" font-family="Times Roman,serif" font-size="14" text-anchor="middle">Symbol(&apos;x&apos;)</text></g><g id="node5" class="node"><title>Mul(Symbol(x), Symbol(y))_(0,)</title><ellipse cx="213" cy="-93" fill="none" stroke="#000" rx="28.991" ry="18.385"/><text x="213" y="-89.4" font-family="Times Roman,serif" font-size="14" text-anchor="middle">Mul</text></g><g id="edge2" class="edge"><title>Mul(Symbol(x), Symbol(y))_(0,)-&gt;Symbol(x)_(0, 0)</title><path fill="none" stroke="#000" d="M189.875,-81.4375C167.621,-70.3107 133.47,-53.2352 106.504,-39.7519"/><polygon fill="#000" stroke="#000" points="107.806 -36.49 97.296 -35.148 104.675 -42.751 107.806 -36.49"/></g><g id="edge4" class="edge"><title>Mul(Symbol(x), Symbol(y))_(0,)-&gt;Symbol(y)_(0, 1)</title><path fill="none" stroke="#000" d="M213,-74.3267C213,-66.2639 213,-56.6477 213,-47.7115"/><polygon fill="#000" stroke="#000" points="216.5 -47.667 213 -37.667 209.5 -47.667 216.5 -47.667"/></g><g id="node6" class="node"><title>Pow(Symbol(x), Integer(2))_(1,)</title><ellipse cx="357" cy="-93" fill="none" stroke="#000" rx="32.026" ry="18.385"/><text x="357" y="-89.4" font-family="Times Roman,serif" font-size="14" text-anchor="middle">Pow</text></g><g id="edge8" class="edge"><title>Pow(Symbol(x), Integer(2))_(1,)-&gt;Integer(2)_(1, 1)</title><path fill="none" stroke="#000" d="M357,-74.3267C357,-66.2639 357,-56.6477 357,-47.7115"/><polygon fill="#000" stroke="#000" points="360.5 -47.667 357 -37.667 353.5 -47.667 360.5 -47.667"/></g><g id="edge6" class="edge"><title>Pow(Symbol(x), Integer(2))_(1,)-&gt;Symbol(x)_(1, 0)</title><path fill="none" stroke="#000" d="M381.102,-80.6141C402.709,-69.5108 434.847,-52.9954 460.412,-39.8576"/><polygon fill="#000" stroke="#000" points="462.208 -42.87 469.502 -35.186 459.008 -36.644 462.208 -42.87"/></g><g id="node7" class="node"><title>Add(Mul(Symbol(x), Symbol(y)), Pow(Symbol(x), Integer(2)))_()</title><ellipse cx="285" cy="-167" fill="none" stroke="#000" rx="29.907" ry="18.385"/><text x="285" y="-163.4" font-family="Times Roman,serif" font-size="14" text-anchor="middle">Add</text></g><g id="edge10" class="edge"><title>Add(Mul(Symbol(x), Symbol(y)), Pow(Symbol(x), Integer(2)))_()-&gt;Mul(Symbol(x), Symbol(y))_(0,)</title><path fill="none" stroke="#000" d="M269.377,-150.943C259.497,-140.789 246.565,-127.497 235.579,-116.206"/><polygon fill="#000" stroke="#000" points="237.827 -113.498 228.345 -108.771 232.81 -118.379 237.827 -113.498"/></g><g id="edge12" class="edge"><title>Add(Mul(Symbol(x), Symbol(y)), Pow(Symbol(x), Integer(2)))_()-&gt;Pow(Symbol(x), Integer(2))_(1,)</title><path fill="none" stroke="#000" d="M300.623,-150.943C310.368,-140.927 323.084,-127.858 333.972,-116.668"/><polygon fill="#000" stroke="#000" points="336.694 -118.889 341.159 -109.281 331.677 -114.008 336.694 -118.889"/></g></g></svg>