<svg xmlns="http://www.w3.org/2000/svg" xmlns:svg="http://www.w3.org/2000/svg" id="svg2" width="550" height="550" version="1.1"><metadata id="metadata7"/><g id="layer1" transform="translate(0,-502.36218)"><path style="fill:none;stroke:#000;stroke-width:1.41909456px;stroke-linecap:butt;stroke-linejoin:miter;stroke-opacity:1" id="path2985" d="M 118.29837,809.88501 361.66009,661.60179 z"/><path style="fill:none;stroke:#000;stroke-width:1.43278706px;stroke-linecap:butt;stroke-linejoin:miter;stroke-opacity:1" id="path2987" d="m 116.84246,814.11392 0,-216.67298 z"/><path style="fill:none;stroke:#000;stroke-width:1.43278706px;stroke-linecap:butt;stroke-linejoin:miter;stroke-opacity:1" id="path2989" d="M 115.36612,812.69775 454.9212,971.30802 z"/><path id="path2991" d="m 438.99082,257.84402 a 51.972477,63.073395 0 1 1 -103.94496,0 51.972477,63.073395 0 1 1 103.94496,0 z" transform="matrix(1.4629053,0,0,1.403289,-210.90202,464.3216)" style="fill:none;stroke:#000;stroke-opacity:1"/><path id="path3047" d="m 328.4629,829.49445 32.65839,-23.52654 z" style="fill:none;stroke:#000;stroke-width:.20706929px;stroke-linecap:butt;stroke-linejoin:miter;stroke-opacity:1"/><path id="path3049" d="m 328.21723,830.46048 0,-52.30587 z" style="fill:none;stroke:#000;stroke-width:.31983453px;stroke-linecap:butt;stroke-linejoin:miter;stroke-opacity:1"/><path id="path3051" d="m 327.85886,830.06497 50.74322,23.36436 z" style="fill:none;stroke:#000;stroke-width:.21258216px;stroke-linecap:butt;stroke-linejoin:miter;stroke-opacity:1"/><text style="font-size:15px;font-style:normal;font-weight:400;line-height:125%;letter-spacing:0;word-spacing:0;fill:#000;fill-opacity:1;stroke:none;font-family:Sans" id="text3053" x="428.859" y="249.357" transform="translate(0,502.36218)" xml:space="preserve"><tspan id="tspan3055" x="428.859" y="249.357" style="font-size:35px">R</tspan></text><text style="font-size:15px;font-style:normal;font-weight:400;line-height:125%;letter-spacing:0;word-spacing:0;fill:#000;fill-opacity:1;stroke:none;font-family:Sans" id="text3057" x="53.939" y="137.058" transform="translate(0,502.36218)" xml:space="preserve"><tspan id="tspan3059" x="53.939" y="137.058" style="font-size:35px">N</tspan></text><text style="font-size:25px;font-style:normal;font-weight:400;line-height:125%;letter-spacing:0;word-spacing:0;fill:#000;fill-opacity:1;stroke:none;font-family:Sans" id="text3061" x="124.678" y="116.72" transform="translate(0,502.36218)" xml:space="preserve"><tspan id="tspan3063" x="124.678" y="116.72">n<tspan style="font-size:65%;baseline-shift:sub" id="tspan3067">z</tspan></tspan></text><text style="font-size:25px;font-style:normal;font-weight:400;line-height:125%;letter-spacing:0;word-spacing:0;fill:#000;fill-opacity:1;stroke:none;font-family:Sans" id="text3069" x="463.344" y="486.334" transform="translate(0,502.36218)" xml:space="preserve"><tspan id="tspan3071" x="463.344" y="486.334">n<tspan style="font-size:65%;baseline-shift:sub" id="tspan3073">x</tspan></tspan></text><text style="font-size:25px;font-style:normal;font-weight:400;line-height:125%;letter-spacing:0;word-spacing:0;fill:#000;fill-opacity:1;stroke:none;font-family:Sans" id="text3075" x="372.267" y="153.859" transform="translate(0,502.36218)" xml:space="preserve"><tspan id="tspan3077" x="372.267" y="153.859">n<tspan style="font-size:65%;baseline-shift:sub" id="tspan3079">y</tspan></tspan></text><text style="font-size:25px;font-style:normal;font-weight:400;line-height:125%;letter-spacing:0;word-spacing:0;fill:#000;fill-opacity:1;stroke:none;font-family:Sans" id="text3081" x="382.878" y="358.119" transform="translate(0,502.36218)" xml:space="preserve"><tspan id="tspan3083" x="382.878" y="358.119">r<tspan style="font-size:65%;baseline-shift:sub" id="tspan3085">x</tspan></tspan></text><text style="font-size:25px;font-style:normal;font-weight:400;line-height:125%;letter-spacing:0;word-spacing:0;fill:#000;fill-opacity:1;stroke:none;font-family:Sans" id="text3087" x="366.077" y="303.296" transform="translate(0,502.36218)" xml:space="preserve"><tspan id="tspan3089" x="366.077" y="303.296">r<tspan style="font-size:65%;baseline-shift:sub" id="tspan3091">y</tspan></tspan></text><text style="font-size:25px;font-style:normal;font-weight:400;line-height:125%;letter-spacing:0;word-spacing:0;fill:#000;fill-opacity:1;stroke:none;font-family:Sans" id="text3093" x="331.592" y="281.19" transform="translate(0,502.36218)" xml:space="preserve"><tspan id="tspan3095" x="331.592" y="281.19">r<tspan style="font-size:65%;baseline-shift:sub" id="tspan3097">z</tspan></tspan></text><path style="fill:none;stroke:#000;stroke-width:1px;stroke-linecap:butt;stroke-linejoin:miter;stroke-opacity:1" id="path3099" d="m 122.90997,97.266881 8.84244,-7.958199 7.9582,7.073955 0,0" transform="translate(0,502.36218)"/><path id="path3101" d="m 371.38264,640.3043 8.84244,-7.9582 7.9582,7.07396 0,0" style="fill:none;stroke:#000;stroke-width:1px;stroke-linecap:butt;stroke-linejoin:miter;stroke-opacity:1"/><path style="fill:none;stroke:#000;stroke-width:1px;stroke-linecap:butt;stroke-linejoin:miter;stroke-opacity:1" id="path3103" d="m 463.34405,973.66443 8.84244,-7.9582 7.9582,7.07396 0,0"/><path id="path3105" d="m 381.99357,846.33324 8.84244,-7.9582 7.9582,7.07396 0,0" style="fill:none;stroke:#000;stroke-width:1px;stroke-linecap:butt;stroke-linejoin:miter;stroke-opacity:1"/><path style="fill:none;stroke:#000;stroke-width:1px;stroke-linecap:butt;stroke-linejoin:miter;stroke-opacity:1" id="path3107" d="m 365.19293,791.51009 8.84244,-7.9582 7.9582,7.07396 0,0"/><path id="path3109" d="m 331.59164,768.51974 8.84244,-7.9582 7.9582,7.07396 0,0" style="fill:none;stroke:#000;stroke-width:1px;stroke-linecap:butt;stroke-linejoin:miter;stroke-opacity:1"/></g></svg>