<svg xmlns="http://www.w3.org/2000/svg" xmlns:svg="http://www.w3.org/2000/svg" id="svg2" width="450" height="300" version="1.1"><metadata id="metadata7"/><g id="layer1" transform="translate(0,-752.36218)"><g style="fill:#f9f9f9;stroke:#000;stroke-opacity:1" id="g3147"><path style="fill:#f9f9f9;fill-rule:evenodd;stroke:#000;stroke-opacity:1" id="path3157" d="m 160.69522,910.16309 46.09494,29.4402 45.16936,-27.66623 -46.5388,-19.81579 z"/><path style="fill:#f9f9f9;fill-rule:evenodd;stroke:#000;stroke-opacity:1" id="path3149" d="m 160.69522,861.88507 0,48.27802 44.7255,-18.04182 0,-40.44906 z"/><path style="fill:#f9f9f9;fill-rule:evenodd;stroke:#000;stroke-opacity:1" id="path3159" d="m 205.42072,851.67221 46.5388,11.21704 0,49.04781 -46.5388,-19.81579 z"/><path style="fill:#f9f9f9;fill-rule:evenodd;stroke:#000;stroke-opacity:1" id="path3151" d="m 160.69522,861.88507 46.09494,16.6651 45.16936,-15.66092 -46.5388,-11.21704 z"/><path style="fill:#f9f9f9;fill-rule:evenodd;stroke:#000;stroke-opacity:1" id="path3155" d="m 206.79016,878.55017 0,61.05312 45.16936,-27.66623 0,-49.04781 z"/><path style="fill:#f9f9f9;fill-rule:evenodd;stroke:#000;stroke-opacity:1" id="path3153" d="m 160.69522,861.88507 46.09494,16.6651 0,61.05312 -46.09494,-29.4402 z"/></g><g style="fill:#f9f9f9;stroke:#000;stroke-opacity:1" id="g3161"><path style="fill:#f9f9f9;fill-rule:evenodd;stroke:#000;stroke-opacity:1" id="path3171" d="m 255.02906,912.80792 53.06279,22.50747 33.80412,-35.91057 -45.16481,-12.77161 z"/><path style="fill:#f9f9f9;fill-rule:evenodd;stroke:#000;stroke-opacity:1" id="path3163" d="m 255.02906,863.49303 0,49.31489 41.7021,-26.17471 0,-37.98226 z"/><path style="fill:#f9f9f9;fill-rule:evenodd;stroke:#000;stroke-opacity:1" id="path3173" d="m 296.73116,848.65095 45.16481,7.242 0,43.51187 -45.16481,-12.77161 z"/><path style="fill:#f9f9f9;fill-rule:evenodd;stroke:#000;stroke-opacity:1" id="path3165" d="m 255.02906,863.49303 53.06279,12.76261 33.80412,-20.36269 -45.16481,-7.242 z"/><path style="fill:#f9f9f9;fill-rule:evenodd;stroke:#000;stroke-opacity:1" id="path3169" d="m 308.09185,876.25564 0,59.05975 33.80412,-35.91057 0,-43.51187 z"/><path style="fill:#f9f9f9;fill-rule:evenodd;stroke:#000;stroke-opacity:1" id="path3167" d="m 255.02906,863.49303 53.06279,12.76261 0,59.05975 -53.06279,-22.50747 z"/></g><g style="fill:#f9f9f9;stroke:#000;stroke-opacity:1" id="g3175"><path style="fill:#f9f9f9;fill-rule:evenodd;stroke:#000;stroke-opacity:1" id="path3185" d="m 308.09185,976.83312 55.74273,30.84058 21.46572,-61.67152 -43.40434,-16.00946 z"/><path style="fill:#f9f9f9;fill-rule:evenodd;stroke:#000;stroke-opacity:1" id="path3177" d="m 308.09185,939.0673 0,37.76582 33.80411,-46.8404 0,-27.82371 z"/><path style="fill:#f9f9f9;fill-rule:evenodd;stroke:#000;stroke-opacity:1" id="path3187" d="m 341.89596,902.16901 43.40434,12.61137 0,31.2218 -43.40434,-16.00946 z"/><path style="fill:#f9f9f9;fill-rule:evenodd;stroke:#000;stroke-opacity:1" id="path3179" d="m 308.09185,939.0673 55.74273,24.29454 21.46572,-48.58146 -43.40434,-12.61137 z"/><path style="fill:#f9f9f9;fill-rule:evenodd;stroke:#000;stroke-opacity:1" id="path3183" d="m 363.83458,963.36184 0,44.31186 21.46572,-61.67152 0,-31.2218 z"/><path style="fill:#f9f9f9;fill-rule:evenodd;stroke:#000;stroke-opacity:1" id="path3181" d="m 308.09185,939.0673 55.74273,24.29454 0,44.31186 -55.74273,-30.84058 z"/></g><g style="fill:#f9f9f9;stroke:#000;stroke-opacity:1" id="g3219"><path style="fill:#f9f9f9;fill-rule:evenodd;stroke:#000;stroke-opacity:1" id="path3229" d="m 116.20824,844.48538 43.415,15.25573 44.66761,-9.81427 -47.73662,-11.18288 z"/><path style="fill:#f9f9f9;fill-rule:evenodd;stroke:#000;stroke-opacity:1" id="path3221" d="m 116.20824,799.1745 0,45.31088 40.34599,-5.74142 0,-39.60322 z"/><path style="fill:#f9f9f9;fill-rule:evenodd;stroke:#000;stroke-opacity:1" id="path3231" d="m 156.55423,799.14074 47.73662,0.0657 0,50.72035 -47.73662,-11.18288 z"/><path style="fill:#f9f9f9;fill-rule:evenodd;stroke:#000;stroke-opacity:1" id="path3223" d="m 116.20824,799.1745 43.415,0.0897 44.66761,-0.0577 -47.73662,-0.0657 z"/><path style="fill:#f9f9f9;fill-rule:evenodd;stroke:#000;stroke-opacity:1" id="path3227" d="m 159.62324,799.2642 0,60.47691 44.66761,-9.81427 0,-50.72035 z"/><path style="fill:#f9f9f9;fill-rule:evenodd;stroke:#000;stroke-opacity:1" id="path3225" d="m 116.20824,799.1745 43.415,0.0897 0,60.47691 -43.415,-15.25573 z"/></g><path id="path3019" d="M 53.261377,826.62426 37.674785,851.26113 z" style="fill:none;stroke:#000;stroke-width:1px;stroke-linecap:butt;stroke-linejoin:miter;stroke-opacity:1"/><path id="path3021" d="m 53.261377,827.12705 24.134078,13.07263 z" style="fill:none;stroke:#000;stroke-width:1px;stroke-linecap:butt;stroke-linejoin:miter;stroke-opacity:1"/><path id="path3023" d="M 52.758583,826.62426 51.250204,801.98739 z" style="fill:none;stroke:#000;stroke-width:1px;stroke-linecap:butt;stroke-linejoin:miter;stroke-opacity:1"/><text id="text3097" x="27.67" y="858.187" xml:space="preserve" style="font-size:15px;font-style:normal;font-weight:400;line-height:125%;letter-spacing:0;word-spacing:0;fill:#000;fill-opacity:1;stroke:none;font-family:Sans"><tspan id="tspan3099" x="27.67" y="858.187">n<tspan id="tspan3101" style="font-size:65.00091553%;baseline-shift:sub">x</tspan></tspan></text><text id="text3103" x="78.641" y="839.255" xml:space="preserve" style="font-size:15px;font-style:normal;font-weight:400;line-height:125%;letter-spacing:0;word-spacing:0;fill:#000;fill-opacity:1;stroke:none;font-family:Sans"><tspan id="tspan3105" x="78.641" y="839.255">n<tspan id="tspan3107" style="font-size:65.00091553%;baseline-shift:sub">y</tspan></tspan></text><text id="text3109" x="46.117" y="793.139" xml:space="preserve" style="font-size:15px;font-style:normal;font-weight:400;line-height:125%;letter-spacing:0;word-spacing:0;fill:#000;fill-opacity:1;stroke:none;font-family:Sans"><tspan id="tspan3111" x="46.117" y="793.139">n<tspan id="tspan3113" style="font-size:65.00091553%;baseline-shift:sub">z</tspan></tspan></text><text id="text3115" x="124.272" y="880.518" xml:space="preserve" style="font-size:15px;font-style:normal;font-weight:400;line-height:125%;letter-spacing:0;word-spacing:0;fill:#000;fill-opacity:1;stroke:none;font-family:Sans"><tspan id="tspan3117" x="124.272" y="880.518">q<tspan id="tspan3119" style="font-size:65.00091553%;baseline-shift:sub">1</tspan></tspan></text><text id="text3121" x="251.942" y="844.595" xml:space="preserve" style="font-size:15px;font-style:normal;font-weight:400;line-height:125%;letter-spacing:0;word-spacing:0;fill:#000;fill-opacity:1;stroke:none;font-family:Sans"><tspan id="tspan3123" x="251.942" y="844.595">q<tspan id="tspan3125" style="font-size:65.00091553%;baseline-shift:sub">2</tspan></tspan></text><text id="text3127" x="338.835" y="931.003" xml:space="preserve" style="font-size:15px;font-style:normal;font-weight:400;line-height:125%;letter-spacing:0;word-spacing:0;fill:#000;fill-opacity:1;stroke:none;font-family:Sans"><tspan id="tspan3129" x="338.835" y="931.003">q<tspan id="tspan3131" style="font-size:65.00091553%;baseline-shift:sub">3</tspan></tspan></text><text id="text3137" x="175.728" y="835.372" xml:space="preserve" style="font-size:15px;font-style:normal;font-weight:400;line-height:125%;letter-spacing:0;word-spacing:0;fill:#000;fill-opacity:1;stroke:none;font-family:Sans"><tspan id="tspan3139" x="175.728" y="835.372">a<tspan id="tspan3141" style="font-size:65.00091553%;baseline-shift:sub">x</tspan></tspan></text><text id="text3143" x="233.495" y="891.197" xml:space="preserve" style="font-size:15px;font-style:normal;font-weight:400;line-height:125%;letter-spacing:0;word-spacing:0;fill:#000;fill-opacity:1;stroke:none;font-family:Sans"><tspan id="tspan3145" x="233.495" y="891.197">b<tspan id="tspan3147" style="font-size:65.00091553%;baseline-shift:sub">z</tspan></tspan></text><text id="text3149" x="326.214" y="882.459" xml:space="preserve" style="font-size:15px;font-style:normal;font-weight:400;line-height:125%;letter-spacing:0;word-spacing:0;fill:#000;fill-opacity:1;stroke:none;font-family:Sans"><tspan id="tspan3151" x="326.214" y="882.459">c<tspan id="tspan3153" style="font-size:65.00091553%;baseline-shift:sub">y</tspan></tspan></text><path id="path3156" d="m 162.62136,854.78936 30.58252,-6.79611 -9.2233,-1.45632" style="fill:none;stroke:#000;stroke-width:1px;stroke-linecap:butt;stroke-linejoin:miter;stroke-opacity:1"/><path id="path3160" d="m 211.65048,928.57577 -0.97087,-44.17476 3.39806,6.79612" style="fill:none;stroke:#000;stroke-width:1px;stroke-linecap:butt;stroke-linejoin:miter;stroke-opacity:1"/><path id="path3162" d="m 312.13592,923.23596 24.27184,-24.27184 -10.67961,4.85437" style="fill:none;stroke:#000;stroke-width:1px;stroke-linecap:butt;stroke-linejoin:miter;stroke-opacity:1"/><path id="path3164" d="m 139.80582,855.2748 c 4.36893,22.3301 14.56311,26.69903 14.56311,26.69903 l -6.31068,0.48543" style="fill:none;stroke:#000;stroke-width:1px;stroke-linecap:butt;stroke-linejoin:miter;stroke-opacity:1"/><path id="path3168" d="m 228.64077,852.36218 c 29.12622,-0.97088 29.61165,4.36893 29.61165,4.36893 l -1.45631,-4.36893 0,0 0,0" style="fill:none;stroke:#000;stroke-width:1px;stroke-linecap:butt;stroke-linejoin:miter;stroke-opacity:1"/><path id="path3170" d="m 312.13592,914.01266 c 15.53398,15.04855 11.65048,23.78641 11.65048,23.78641 l 2.91263,-4.36893" style="fill:none;stroke:#000;stroke-width:1px;stroke-linecap:butt;stroke-linejoin:miter;stroke-opacity:1"/><path id="path3172" d="m 48.54369,782.45927 3.883495,-3.39806 3.398058,3.39806" style="fill:none;stroke:#000;stroke-width:1px;stroke-linecap:butt;stroke-linejoin:miter;stroke-opacity:1"/><path id="path3174" d="m 28.640777,846.0515 4.368932,-3.39806 2.912621,2.91262" style="fill:none;stroke:#000;stroke-width:1px;stroke-linecap:butt;stroke-linejoin:miter;stroke-opacity:1"/><path id="path3176" d="m 79.611651,827.6049 3.398058,-3.39806 2.427184,2.91262" style="fill:none;stroke:#000;stroke-width:1px;stroke-linecap:butt;stroke-linejoin:miter;stroke-opacity:1"/><path id="path3178" d="m 177.6699,824.69228 2.91262,-3.39806 3.39806,3.39806" style="fill:none;stroke:#000;stroke-width:1px;stroke-linecap:butt;stroke-linejoin:miter;stroke-opacity:1"/><path id="path3180" d="m 236.8932,880.51752 3.8835,-2.91262 3.39805,2.42718" style="fill:none;stroke:#000;stroke-width:1px;stroke-linecap:butt;stroke-linejoin:miter;stroke-opacity:1"/><path id="path3182" d="m 327.18446,871.77965 4.36893,-2.91262 3.39806,3.8835" style="fill:none;stroke:#000;stroke-width:1px;stroke-linecap:butt;stroke-linejoin:miter;stroke-opacity:1"/><path id="path3188" d="m 53.972855,826.85574 -7.55806,6.54796 c 8.835869,9.08204 18.928612,17.62689 30.722025,22.84773 10e-7,0 10e-7,0 2e-6,0 6.86003,3.0599 14.554517,4.72264 21.950643,3.60665 1e-6,0 2e-6,0 4e-6,0 4.713221,-0.73869 9.156851,-2.62096 12.812141,-5.41172 1.38655,-1.34543 2.75981,-2.67883 4.11979,-4.0002 10e-6,-10e-6 10e-6,-2e-5 10e-6,-2e-5 0,0 -10e-6,10e-6 -2e-5,2e-5 -1.53401,1.1506 -3.05473,2.28917 -4.56217,3.41571 -3.88781,2.24902 -8.27645,3.43202 -12.596979,3.52348 -10e-7,0 -2e-6,0 -4e-6,0 -6.847081,0.19286 -13.468458,-2.30564 -19.325719,-5.79193 -1e-6,0 -2e-6,0 -3e-6,0 -10.178318,-6.08905 -18.216388,-15.14243 -25.56166,-24.73768 z" style="fill:#000;fill-rule:evenodd;stroke:none"/><text id="text3192" x="160.194" y="784.886" xml:space="preserve" style="font-size:22px;font-style:normal;font-weight:400;line-height:125%;letter-spacing:0;word-spacing:0;fill:#000;fill-opacity:1;stroke:none;font-family:Sans"><tspan id="tspan3194" x="160.194" y="784.886">A</tspan></text><text id="text3200" x="171.845" y="943.624" xml:space="preserve" style="font-size:22px;font-style:normal;font-weight:400;line-height:125%;letter-spacing:0;word-spacing:0;fill:#000;fill-opacity:1;stroke:none;font-family:Sans"><tspan id="tspan3202" x="171.845" y="943.624">B</tspan></text><text id="text3208" x="259.709" y="941.683" xml:space="preserve" style="font-size:22px;font-style:normal;font-weight:400;line-height:125%;letter-spacing:0;word-spacing:0;fill:#000;fill-opacity:1;stroke:none;font-family:Sans"><tspan id="tspan3210" x="259.709" y="941.683">C</tspan></text><text id="text3212" x="382.039" y="975.663" xml:space="preserve" style="font-size:22px;font-style:normal;font-weight:400;line-height:125%;letter-spacing:0;word-spacing:0;fill:#000;fill-opacity:1;stroke:none;font-family:Sans"><tspan id="tspan3214" x="382.039" y="975.663">D</tspan></text><text id="text3216" x="25.728" y="809.644" xml:space="preserve" style="font-size:22px;font-style:normal;font-weight:400;line-height:125%;letter-spacing:0;word-spacing:0;fill:#000;fill-opacity:1;stroke:none;font-family:Sans"><tspan id="tspan3218" x="25.728" y="809.644">N</tspan></text></g></svg>