<svg xmlns="http://www.w3.org/2000/svg" xmlns:svg="http://www.w3.org/2000/svg" xmlns:xlink="http://www.w3.org/1999/xlink" id="svg2" width="378.905" height="456.138" version="1.1"><defs id="defs4"><pattern id="pattern6485" patternTransform="matrix(1.4782083,0,0,12.709288,204.03947,0)" xlink:href="#Strips1_4"/><pattern id="Strips1_4" width="5" height="1" patternTransform="translate(0,0) scale(10,10)" patternUnits="userSpaceOnUse"><rect id="rect5768" width="1" height="2" x="0" y="-.5" style="fill:#000;stroke:none"/></pattern><marker id="Arrow2Lend" orient="auto" refX="0" refY="0" style="overflow:visible"><path id="path3812" d="M 8.7185878,4.0337352 -2.2072895,0.01601326 8.7185884,-4.0017078 c -1.7454984,2.3720609 -1.7354408,5.6174519 -6e-7,8.035443 z" transform="matrix(-1.1,0,0,-1.1,-1.1,0)" style="fill-rule:evenodd;stroke-width:.625;stroke-linejoin:round"/></marker><marker id="Arrow2Lstart" orient="auto" refX="0" refY="0" style="overflow:visible"><path id="path3809" d="M 8.7185878,4.0337352 -2.2072895,0.01601326 8.7185884,-4.0017078 c -1.7454984,2.3720609 -1.7354408,5.6174519 -6e-7,8.035443 z" transform="matrix(1.1,0,0,1.1,1.1,0)" style="fill-rule:evenodd;stroke-width:.625;stroke-linejoin:round"/></marker><marker id="Arrow1Lstart" orient="auto" refX="0" refY="0" style="overflow:visible"><path id="path3791" d="M 0,0 5,-5 -12.5,0 5,5 0,0 z" transform="matrix(0.8,0,0,0.8,10,0)" style="fill-rule:evenodd;stroke:#000;stroke-width:1pt"/></marker><marker id="Arrow2Lstart-8" orient="auto" refX="0" refY="0" style="overflow:visible"><path id="path3809-7" d="M 8.7185878,4.0337352 -2.2072895,0.01601326 8.7185884,-4.0017078 c -1.7454984,2.3720609 -1.7354408,5.6174519 -6e-7,8.035443 z" transform="matrix(1.1,0,0,1.1,1.1,0)" style="fill-rule:evenodd;stroke-width:.625;stroke-linejoin:round"/></marker><marker id="Arrow2Lend-7" orient="auto" refX="0" refY="0" style="overflow:visible"><path id="path3812-7" d="M 8.7185878,4.0337352 -2.2072895,0.01601326 8.7185884,-4.0017078 c -1.7454984,2.3720609 -1.7354408,5.6174519 -6e-7,8.035443 z" transform="matrix(-1.1,0,0,-1.1,-1.1,0)" style="fill-rule:evenodd;stroke-width:.625;stroke-linejoin:round"/></marker><marker id="Arrow2Lend-8" orient="auto" refX="0" refY="0" style="overflow:visible"><path id="path3812-74" d="M 8.7185878,4.0337352 -2.2072895,0.01601326 8.7185884,-4.0017078 c -1.7454984,2.3720609 -1.7354408,5.6174519 -6e-7,8.035443 z" transform="matrix(-1.1,0,0,-1.1,-1.1,0)" style="fill-rule:evenodd;stroke-width:.625;stroke-linejoin:round"/></marker><marker id="Arrow2Lend-3" orient="auto" refX="0" refY="0" style="overflow:visible"><path id="path3812-8" d="M 8.7185878,4.0337352 -2.2072895,0.01601326 8.7185884,-4.0017078 c -1.7454984,2.3720609 -1.7354408,5.6174519 -6e-7,8.035443 z" transform="matrix(-1.1,0,0,-1.1,-1.1,0)" style="fill-rule:evenodd;stroke-width:.625;stroke-linejoin:round"/></marker><marker id="Arrow2Lend-6" orient="auto" refX="0" refY="0" style="overflow:visible"><path id="path3812-4" d="M 8.7185878,4.0337352 -2.2072895,0.01601326 8.7185884,-4.0017078 c -1.7454984,2.3720609 -1.7354408,5.6174519 -6e-7,8.035443 z" transform="matrix(-1.1,0,0,-1.1,-1.1,0)" style="fill-rule:evenodd;stroke-width:.625;stroke-linejoin:round"/></marker><marker id="Arrow2Lend-5" orient="auto" refX="0" refY="0" style="overflow:visible"><path id="path3812-9" d="M 8.7185878,4.0337352 -2.2072895,0.01601326 8.7185884,-4.0017078 c -1.7454984,2.3720609 -1.7354408,5.6174519 -6e-7,8.035443 z" transform="matrix(-1.1,0,0,-1.1,-1.1,0)" style="fill-rule:evenodd;stroke-width:.625;stroke-linejoin:round"/></marker><marker id="Arrow2Lend-1" orient="auto" refX="0" refY="0" style="overflow:visible"><path id="path3812-90" d="M 8.7185878,4.0337352 -2.2072895,0.01601326 8.7185884,-4.0017078 c -1.7454984,2.3720609 -1.7354408,5.6174519 -6e-7,8.035443 z" transform="matrix(-1.1,0,0,-1.1,-1.1,0)" style="fill-rule:evenodd;stroke-width:.625;stroke-linejoin:round"/></marker><marker id="Arrow2Lend-1k" orient="auto" refX="0" refY="0" style="overflow:visible"><path id="path7949" d="M 8.7185878,4.0337352 -2.2072895,0.01601326 8.7185884,-4.0017078 c -1.7454984,2.3720609 -1.7354408,5.6174519 -6e-7,8.035443 z" transform="matrix(-1.1,0,0,-1.1,-1.1,0)" style="fill:red;fill-rule:evenodd;stroke:red;stroke-width:.625;stroke-linejoin:round"/></marker><marker id="Arrow2Lend4" orient="auto" refX="0" refY="0" style="overflow:visible"><path id="path8071" d="M 8.7185878,4.0337352 -2.2072895,0.01601326 8.7185884,-4.0017078 c -1.7454984,2.3720609 -1.7354408,5.6174519 -6e-7,8.035443 z" transform="matrix(-1.1,0,0,-1.1,-1.1,0)" style="fill:red;fill-rule:evenodd;stroke:red;stroke-width:.625;stroke-linejoin:round"/></marker><marker id="Arrow2Lend-1km" orient="auto" refX="0" refY="0" style="overflow:visible"><path id="path8196" d="M 8.7185878,4.0337352 -2.2072895,0.01601326 8.7185884,-4.0017078 c -1.7454984,2.3720609 -1.7354408,5.6174519 -6e-7,8.035443 z" transform="matrix(-1.1,0,0,-1.1,-1.1,0)" style="fill:#00f;fill-rule:evenodd;stroke:#00f;stroke-width:.625;stroke-linejoin:round"/></marker><marker id="Arrow2Lend4X" orient="auto" refX="0" refY="0" style="overflow:visible"><path id="path8199" d="M 8.7185878,4.0337352 -2.2072895,0.01601326 8.7185884,-4.0017078 c -1.7454984,2.3720609 -1.7354408,5.6174519 -6e-7,8.035443 z" transform="matrix(-1.1,0,0,-1.1,-1.1,0)" style="fill:#00f;fill-rule:evenodd;stroke:#00f;stroke-width:.625;stroke-linejoin:round"/></marker><marker id="Arrow2Lend4X-8" orient="auto" refX="0" refY="0" style="overflow:visible"><path id="path8199-5" d="M 8.7185878,4.0337352 -2.2072895,0.01601326 8.7185884,-4.0017078 c -1.7454984,2.3720609 -1.7354408,5.6174519 -6e-7,8.035443 z" transform="matrix(-1.1,0,0,-1.1,-1.1,0)" style="fill:#00f;fill-rule:evenodd;stroke:#00f;stroke-width:.625;stroke-linejoin:round"/></marker><marker id="Arrow2Lend-1km-9" orient="auto" refX="0" refY="0" style="overflow:visible"><path id="path8196-3" d="M 8.7185878,4.0337352 -2.2072895,0.01601326 8.7185884,-4.0017078 c -1.7454984,2.3720609 -1.7354408,5.6174519 -6e-7,8.035443 z" transform="matrix(-1.1,0,0,-1.1,-1.1,0)" style="fill:#00f;fill-rule:evenodd;stroke:#00f;stroke-width:.625;stroke-linejoin:round"/></marker><marker id="Arrow2Lend4Xq" orient="auto" refX="0" refY="0" style="overflow:visible"><path id="path8390" d="M 8.7185878,4.0337352 -2.2072895,0.01601326 8.7185884,-4.0017078 c -1.7454984,2.3720609 -1.7354408,5.6174519 -6e-7,8.035443 z" transform="matrix(-1.1,0,0,-1.1,-1.1,0)" style="fill:red;fill-rule:evenodd;stroke:red;stroke-width:.625;stroke-linejoin:round"/></marker><marker id="Arrow2Lend-1kmM" orient="auto" refX="0" refY="0" style="overflow:visible"><path id="path8393" d="M 8.7185878,4.0337352 -2.2072895,0.01601326 8.7185884,-4.0017078 c -1.7454984,2.3720609 -1.7354408,5.6174519 -6e-7,8.035443 z" transform="matrix(-1.1,0,0,-1.1,-1.1,0)" style="fill:red;fill-rule:evenodd;stroke:red;stroke-width:.625;stroke-linejoin:round"/></marker></defs><metadata id="metadata7"/><g id="layer1" transform="translate(-184.9363,-178.42594)"><path style="fill:red;fill-rule:evenodd;stroke:#000;stroke-width:1px;stroke-linecap:butt;stroke-linejoin:miter;stroke-opacity:1" id="path2989" d="m 357.59401,430.10822 c 0,39.05242 -30.30147,70.71067 -67.68022,70.71067 -37.37876,0 -67.68022,-31.65825 -67.68022,-70.71067 0,-39.05243 30.30146,-70.71068 67.68022,-70.71068 37.37875,0 67.68022,31.65825 67.68022,70.71068 z" transform="matrix(0.22219926,0,0,0.21267643,384.59418,428.325)"/><path style="fill:none;stroke:#000;stroke-width:3.51907468px;stroke-linecap:butt;stroke-linejoin:miter;stroke-opacity:1" id="path2991" d="m 202.92616,204.8442 c 262.86866,0 262.86866,0 262.86866,0"/><path style="fill:#ff0;fill-rule:evenodd;stroke:#000;stroke-width:1px;stroke-linecap:butt;stroke-linejoin:miter;stroke-opacity:1" id="path2993" d="m 253.532,280.49304 -31.29843,0 -31.29844,0 15.64922,-27.10524 15.64922,-27.10523 15.64921,27.10523 z" transform="matrix(-1,0,0,-1,555.58391,486.45996)"/><path style="fill:none;stroke:#000;stroke-width:2;stroke-linecap:butt;stroke-linejoin:miter;stroke-miterlimit:4;stroke-opacity:1;stroke-dasharray:none" id="path2997" d="m 339.78704,249.0287 103.5984,256.81995"/><text style="font-size:40px;font-style:normal;font-weight:400;line-height:125%;letter-spacing:0;word-spacing:0;fill:#000;fill-opacity:1;stroke:none;font-family:Sans" id="text4793" x="402.857" y="383.791" xml:space="preserve"><tspan id="tspan4795" x="402.857" y="383.791">L</tspan></text><text style="font-size:40px;font-style:normal;font-weight:400;line-height:125%;letter-spacing:0;word-spacing:0;fill:#000;fill-opacity:1;stroke:none;font-family:Sans" id="text4797" x="459.714" y="559.362" xml:space="preserve"><tspan id="tspan4799" x="459.714" y="559.362">m</tspan></text><path style="fill:none;stroke:#000;stroke-width:1.21548557;stroke-linecap:butt;stroke-linejoin:miter;stroke-miterlimit:4;stroke-opacity:1;stroke-dasharray:none;marker-end:url(#Arrow2Lend)" id="path4827" d="m 448.57079,536.36278 0,91.58741"/><text style="font-size:40px;font-style:normal;font-weight:400;line-height:125%;letter-spacing:0;word-spacing:0;fill:#000;fill-opacity:1;stroke:none;font-family:Sans" id="text5019" x="530.714" y="302.362" xml:space="preserve"><tspan id="tspan5021" x="530.714" y="302.362">g</tspan></text><rect style="fill:url(#pattern6485);fill-opacity:1;stroke:none" id="rect5023" width="251.274" height="29.008" x="-2.479" y="265.836" rx="0" ry="0" transform="matrix(1,0,0.72381295,0.68999624,0,0)"/><path style="fill:none;stroke:#000;stroke-width:1.99330068;stroke-linecap:butt;stroke-linejoin:miter;stroke-miterlimit:4;stroke-opacity:1;stroke-dasharray:none;marker-end:url(#Arrow2Lend)" id="path4827-1" d="m 333.91099,256.55129 0,263.31654"/><path style="fill:none;stroke:#000;stroke-width:1.34446955;stroke-linecap:butt;stroke-linejoin:miter;stroke-miterlimit:4;stroke-opacity:1;stroke-dasharray:none;marker-end:url(#Arrow2Lend)" id="path4827-7" d="m 335.80895,522.381 113.26991,0"/><text style="font-size:40px;font-style:normal;font-weight:400;line-height:125%;letter-spacing:0;word-spacing:0;fill:#000;fill-opacity:1;stroke:none;font-family:Sans" id="text6597" x="287.936" y="388.354" xml:space="preserve"><tspan id="tspan6599" x="287.936" y="388.354">q<tspan style="font-size:65.00091553%;baseline-shift:sub" id="tspan6601">1</tspan></tspan></text><text style="font-size:40px;font-style:normal;font-weight:400;line-height:125%;letter-spacing:0;word-spacing:0;fill:#000;fill-opacity:1;stroke:none;font-family:Sans" id="text6603" x="366.936" y="506.354" xml:space="preserve"><tspan id="tspan6605" x="366.936" y="506.354">q<tspan style="font-size:65.00091553%;baseline-shift:sub" id="tspan6607">2</tspan></tspan></text><path style="fill:none;stroke:#000;stroke-width:1.21548557;stroke-linecap:butt;stroke-linejoin:miter;stroke-miterlimit:4;stroke-opacity:1;stroke-dasharray:none;marker-end:url(#Arrow2Lend)" id="path4827-9" d="m 465.63937,521.37564 91.58741,0"/><text style="font-size:40px;font-style:normal;font-weight:400;line-height:125%;letter-spacing:0;word-spacing:0;fill:#000;fill-opacity:1;stroke:none;font-family:Sans" id="text6633" x="402.936" y="582.354" xml:space="preserve"><tspan id="tspan6635" x="402.936" y="582.354">u<tspan style="font-size:65.00091553%;baseline-shift:sub" id="tspan6637">1</tspan></tspan></text><text style="font-size:40px;font-style:normal;font-weight:400;line-height:125%;letter-spacing:0;word-spacing:0;fill:#000;fill-opacity:1;stroke:none;font-family:Sans" id="text6639" x="481.936" y="508.354" xml:space="preserve"><tspan id="tspan6641" x="481.936" y="508.354">u<tspan style="font-size:65.00091553%;baseline-shift:sub" id="tspan6643">2</tspan></tspan></text><path style="fill:none;stroke:#000;stroke-width:1.21877503;stroke-linecap:butt;stroke-linejoin:miter;stroke-miterlimit:4;stroke-opacity:1;stroke-dasharray:none;marker-end:url(#Arrow2Lend)" id="path4827-4" d="m 520.9149,264.05894 0,92.49758"/><g id="g8297" transform="translate(-120,-14)"><path id="path4827-70" d="m 333.2704,243.61034 0,56.62207" style="fill:none;stroke:#00f;stroke-width:1.53423667;stroke-linecap:butt;stroke-linejoin:miter;stroke-miterlimit:4;stroke-opacity:1;stroke-dasharray:none;marker-end:url(#Arrow2Lend4X)"/><path id="path4827-9-6" d="m 333.2074,243.13275 56.19646,0" style="fill:none;stroke:#00f;stroke-width:1.65040851;stroke-linecap:butt;stroke-linejoin:miter;stroke-miterlimit:4;stroke-opacity:1;stroke-dasharray:none;marker-end:url(#Arrow2Lend-1km)"/></g><text id="text8301" x="216.936" y="299.354" xml:space="preserve" style="font-size:40px;font-style:normal;font-weight:400;line-height:125%;letter-spacing:0;word-spacing:0;fill:#000;fill-opacity:1;stroke:none;font-family:Sans"><tspan style="font-size:24px" id="tspan8303" x="216.936" y="299.354">N<tspan style="font-size:65.00091553%;baseline-shift:sub" id="tspan8571">x</tspan></tspan></text><text id="text8307" x="247.936" y="258.354" xml:space="preserve" style="font-size:40px;font-style:normal;font-weight:400;line-height:125%;letter-spacing:0;word-spacing:0;fill:#000;fill-opacity:1;stroke:none;font-family:Sans"><tspan style="font-size:24px" id="tspan8309" x="247.936" y="258.354">N<tspan style="font-size:65.00091553%;baseline-shift:sub" id="tspan8569">y</tspan></tspan></text><path style="fill:none;stroke:red;stroke-width:1.53423667;stroke-linecap:butt;stroke-linejoin:miter;stroke-miterlimit:4;stroke-opacity:1;stroke-dasharray:none;marker-end:url(#Arrow2Lend4Xq)" id="path4827-70-2" d="m 335.39519,236.31191 20.29154,52.86126"/><path style="fill:none;stroke:red;stroke-width:1.65040851;stroke-linecap:butt;stroke-linejoin:miter;stroke-miterlimit:4;stroke-opacity:1;stroke-dasharray:none;marker-end:url(#Arrow2Lend-1kmM)" id="path4827-9-6-9" d="m 335.16523,235.88862 52.46391,-20.13901"/><text id="text8301-7" x="361.073" y="284.702" xml:space="preserve" style="font-size:40px;font-style:normal;font-weight:400;line-height:125%;letter-spacing:0;word-spacing:0;fill:#000;fill-opacity:1;stroke:none;font-family:Sans"><tspan style="font-size:24px" id="tspan8303-9" x="361.073" y="284.702">A<tspan style="font-size:65.00091553%;baseline-shift:sub" id="tspan8567">x</tspan></tspan></text><text id="text8307-4" x="386.038" y="235.206" xml:space="preserve" style="font-size:40px;font-style:normal;font-weight:400;line-height:125%;letter-spacing:0;word-spacing:0;fill:#000;fill-opacity:1;stroke:none;font-family:Sans"><tspan style="font-size:24px" id="tspan8309-7" x="386.038" y="235.206">A<tspan style="font-size:65.00091553%;baseline-shift:sub" id="tspan8565">y</tspan></tspan></text></g></svg>