<svg xmlns="http://www.w3.org/2000/svg" xmlns:svg="http://www.w3.org/2000/svg" id="svg3229" width="350" height="175" version="1.1"><metadata id="metadata3234"/><g id="layer1" transform="translate(0,-877.36218)"><path style="fill:none;stroke:#000;stroke-width:1px;stroke-linecap:butt;stroke-linejoin:miter;stroke-opacity:1" id="path3237" d="M 22.862233,100.59382 135.09501,29.928741 124.70309,31.175772" transform="translate(0,877.36218)"/><path style="fill:none;stroke:#000;stroke-width:1px;stroke-linecap:butt;stroke-linejoin:miter;stroke-opacity:1" id="path3239" d="m 209.50119,69.002375 c -7.92514,5.434385 -19.09055,3.352699 -24.52493,-4.572446 -5.43439,-7.925146 -3.3527,-19.090555 4.57244,-24.52494 7.92515,-5.434386 19.09056,-3.352699 24.52494,4.572446" transform="translate(1.6627078,889.00113)"/><path style="fill:none;stroke:#000;stroke-width:1px;stroke-linecap:butt;stroke-linejoin:miter;stroke-opacity:1" id="path3241" d="m 276.00949,71.080762 c -8.15158,4.755086 -18.9385,1.916421 -23.69359,-6.235158 -4.75508,-8.151579 -1.91642,-18.9385 6.23516,-23.693586 8.15158,-4.755086 18.9385,-1.91642 23.69359,6.235159" transform="translate(27.019002,889.00114)"/><path style="fill:none;stroke:#000;stroke-width:1px;stroke-linecap:butt;stroke-linejoin:miter;stroke-opacity:1" id="path3243" d="m 210.74822,958.83486 -3.74109,4.98813"/><text style="font-size:15px;font-style:normal;font-weight:400;line-height:125%;letter-spacing:0;word-spacing:0;fill:#000;fill-opacity:1;stroke:none;font-family:Sans" id="text3247" x="11.639" y="119.715" transform="translate(0,877.36218)" xml:space="preserve"><tspan id="tspan3249" x="11.639" y="119.715">Vector on page</tspan></text><text style="font-size:15px;font-style:normal;font-weight:400;line-height:125%;letter-spacing:0;word-spacing:0;fill:#000;fill-opacity:1;stroke:none;font-family:Sans" id="text3251" x="163.361" y="989.179" xml:space="preserve"><tspan id="tspan3253" x="163.361" y="989.179">Vector out</tspan><tspan id="tspan3255" x="163.361" y="1007.929">of page</tspan></text><path style="fill:none;stroke:#000;stroke-width:1px;stroke-linecap:butt;stroke-linejoin:miter;stroke-opacity:1" id="path3257" d="m 309.26367,936.80399 -1.24704,-8.31354"/><text id="text3283" x="268.112" y="990.842" xml:space="preserve" style="font-size:15px;font-style:normal;font-weight:400;line-height:125%;letter-spacing:0;word-spacing:0;fill:#000;fill-opacity:1;stroke:none;font-family:Sans"><tspan id="tspan3285" x="268.112" y="990.842">Vector</tspan><tspan id="tspan3287" x="268.112" y="1009.592">into page</tspan></text></g></svg>