<svg xmlns="http://www.w3.org/2000/svg" xmlns:svg="http://www.w3.org/2000/svg" id="svg3060" width="400" height="300" version="1.1"><metadata id="metadata3065"/><g id="layer1" transform="translate(0,-752.36218)"><path style="fill:none;stroke:#000;stroke-width:1px;stroke-linecap:butt;stroke-linejoin:miter;stroke-opacity:1" id="path3068" d="M 19.907407,219.44444 54.62963,182.87037 96.759259,211.11111" transform="translate(0,752.36218)"/><path style="fill:none;stroke:#000;stroke-width:1px;stroke-linecap:butt;stroke-linejoin:miter;stroke-opacity:1" id="path3070" d="M 54.62963,182.87037 53.703704,127.77778" transform="translate(0,752.36218)"/><path id="path3072" d="m 312.03703,137.5 a 41.898148,26.851852 0 1 1 -83.79629,0 41.898148,26.851852 0 1 1 83.79629,0 z" transform="matrix(1.3979832,0,0,1.4972804,-117.9274,672.26168)" style="fill:none;stroke:#000"/><path style="fill:none;stroke:#000;stroke-width:1.4467802px;stroke-linecap:butt;stroke-linejoin:miter;stroke-opacity:1" id="path3074" d="M 256.16254,875.36501 267.81241,799.8078 z"/><path style="fill:none;stroke:#000;stroke-width:1.4467802px;stroke-linecap:butt;stroke-linejoin:miter;stroke-opacity:1" id="path3076" d="m 289.17047,876.75137 0,0 0,0 0,0 -33.00793,-1.38636 -16.18036,30.50015"/><path id="path3084" d="m 270.55557,887.54736 a 2.5,2.5 0 1 1 -5,0 2.5,2.5 0 1 1 5,0 z" transform="matrix(1.3979832,0,0,1.4972804,-117.9274,-454.23549)" style="fill:#000;stroke:none"/><path id="path3086" d="m 292.77777,913.01031 a 2.5,2.5 0 1 1 -5,0 2.5,2.5 0 1 1 5,0 z" transform="matrix(1.3979832,0,0,1.4972804,-117.9274,-454.23549)" style="fill:#000;stroke:none"/><path style="fill:none;stroke:#000;stroke-width:1.4467802px;stroke-linecap:butt;stroke-linejoin:miter;stroke-opacity:1" id="path3088" d="m 258.75139,874.67182 29.12466,38.81838 z"/><text style="font-size:40px;font-style:normal;font-weight:400;line-height:125%;letter-spacing:0;word-spacing:0;fill:#000;fill-opacity:1;stroke:none;font-family:Sans" id="text3090" x="56.944" y="933.381" xml:space="preserve"><tspan id="tspan3092" x="56.944" y="933.381">N</tspan></text><text style="font-size:40px;font-style:normal;font-weight:400;line-height:125%;letter-spacing:0;word-spacing:0;fill:#000;fill-opacity:1;stroke:none;font-family:Sans" id="text3094" x="26.852" y="235.185" transform="translate(0,752.36218)" xml:space="preserve"><tspan id="tspan3096" x="26.852" y="235.185" style="font-size:20px">n<tspan style="font-size:65%;baseline-shift:sub" id="tspan3102">x</tspan></tspan></text><text style="font-size:40px;font-style:normal;font-weight:400;line-height:125%;letter-spacing:0;word-spacing:0;fill:#000;fill-opacity:1;stroke:none;font-family:Sans" id="text3104" x="102.315" y="217.593" transform="translate(0,752.36218)" xml:space="preserve"><tspan id="tspan3106" x="102.315" y="217.593" style="font-size:20px">n<tspan style="font-size:65%;baseline-shift:sub" id="tspan3108">y</tspan></tspan></text><text style="font-size:40px;font-style:normal;font-weight:400;line-height:125%;letter-spacing:0;word-spacing:0;fill:#000;fill-opacity:1;stroke:none;font-family:Sans" id="text3110" x="42.13" y="118.519" transform="translate(0,752.36218)" xml:space="preserve"><tspan id="tspan3112" x="42.13" y="118.519" style="font-size:20px">n<tspan style="font-size:65%;baseline-shift:sub" id="tspan3114">z</tspan></tspan></text><path style="fill:none;stroke:#000;stroke-width:1px;stroke-linecap:butt;stroke-linejoin:miter;stroke-opacity:1" id="path3116" d="M 43.518519,105.55556 48.148148,100 l 4.166667,4.62963" transform="translate(0,752.36218)"/><path style="fill:none;stroke:#000;stroke-width:1px;stroke-linecap:butt;stroke-linejoin:miter;stroke-opacity:1" id="path3120" d="m 105.55556,203.24074 5.09259,-5.09259 4.62963,4.62963" transform="translate(0,752.36218)"/><path style="fill:none;stroke:#000;stroke-width:1px;stroke-linecap:butt;stroke-linejoin:miter;stroke-opacity:1" id="path3122" d="m 28.703704,219.90741 6.018518,-5.0926 5.092593,4.62963" transform="translate(0,752.36218)"/><text style="font-size:40px;font-style:normal;font-weight:400;line-height:125%;letter-spacing:0;word-spacing:0;fill:#000;fill-opacity:1;stroke:none;font-family:Sans" id="text3124" x="167.13" y="78.241" transform="translate(0,752.36218)" xml:space="preserve"><tspan id="tspan3126" x="167.13" y="78.241">B</tspan></text><text style="font-size:40px;font-style:normal;font-weight:400;line-height:125%;letter-spacing:0;word-spacing:0;fill:#000;fill-opacity:1;stroke:none;font-family:Sans" id="text3128" x="237.963" y="871.344" xml:space="preserve"><tspan id="tspan3130" x="237.963" y="871.344" style="font-size:20px">O</tspan></text><text style="font-size:40px;font-style:normal;font-weight:400;line-height:125%;letter-spacing:0;word-spacing:0;fill:#000;fill-opacity:1;stroke:none;font-family:Sans" id="text3132" x="300" y="170.37" transform="translate(0,752.36218)" xml:space="preserve"><tspan id="tspan3134" x="300" y="170.37" style="font-size:20px">P</tspan></text><text style="font-size:40px;font-style:normal;font-weight:400;line-height:125%;letter-spacing:0;word-spacing:0;fill:#000;fill-opacity:1;stroke:none;font-family:Sans" id="text3136" x="275" y="45.37" transform="translate(0,752.36218)" xml:space="preserve"><tspan id="tspan3138" x="275" y="45.37" style="font-size:20px">b<tspan style="font-size:65%;baseline-shift:sub" id="tspan3140">z</tspan></tspan></text><text style="font-size:40px;font-style:normal;font-weight:400;line-height:125%;letter-spacing:0;word-spacing:0;fill:#000;fill-opacity:1;stroke:none;font-family:Sans" id="text3142" x="290.278" y="881.066" xml:space="preserve"><tspan id="tspan3144" x="290.278" y="881.066" style="font-size:20px">b<tspan style="font-size:65.00091553%;baseline-shift:sub" id="tspan3146">y</tspan></tspan></text><text style="font-size:40px;font-style:normal;font-weight:400;line-height:125%;letter-spacing:0;word-spacing:0;fill:#000;fill-opacity:1;stroke:none;font-family:Sans" id="text3148" x="217.593" y="903.288" xml:space="preserve"><tspan id="tspan3150" x="217.593" y="903.288" style="font-size:20px">b<tspan style="font-size:65.00091553%;baseline-shift:sub" id="tspan3152">x</tspan></tspan></text><path style="fill:none;stroke:#000;stroke-width:1px;stroke-linecap:butt;stroke-linejoin:miter;stroke-opacity:1" id="path3176" d="m 220.37037,133.33333 4.16667,-3.7037 2.77777,3.24074" transform="translate(0,752.36218)"/><path style="fill:none;stroke:#000;stroke-width:1px;stroke-linecap:butt;stroke-linejoin:miter;stroke-opacity:1" id="path3178" d="m 293.05556,111.57407 5.09259,-2.77777 3.24074,2.77777" transform="translate(0,752.36218)"/><path style="fill:none;stroke:#000;stroke-width:1px;stroke-linecap:butt;stroke-linejoin:miter;stroke-opacity:1" id="path3180" d="m 277.31481,28.240741 3.70371,-3.703704 2.77778,3.240741" transform="translate(0,752.36218)"/><path style="fill:none;stroke:#000;stroke-width:1px;stroke-linecap:butt;stroke-linejoin:miter;stroke-opacity:1" id="path3182" d="m 270.83333,145.37037 c 0,2.77778 0,5.55556 0,8.33333 0,0.61729 0.16958,1.25832 0,1.85186 -0.15285,0.535 -0.70674,0.87746 -0.92592,1.38888 -0.25065,0.58484 -0.26176,1.24823 -0.46297,1.85186 -0.21824,0.65472 -0.75854,1.18231 -0.92592,1.85185 -0.0749,0.29942 0.13803,0.64987 0,0.92592 -0.34507,0.69015 -1.00607,1.18192 -1.38889,1.85186 -0.48424,0.84741 -0.48944,1.9048 -0.92593,2.77777 -0.0976,0.19521 -0.41003,0.25124 -0.46296,0.46297 -0.11228,0.44914 0.0761,0.93222 0,1.38889 -0.16045,0.96273 -0.73451,1.82072 -0.92593,2.77777 -0.0605,0.30265 0,0.61729 0,0.92593 -0.15432,0.30864 -0.35384,0.59856 -0.46296,0.92593 -0.0976,0.2928 0.0976,0.63312 0,0.92592 -0.10912,0.32737 -0.39529,0.58756 -0.46296,0.92593 -0.0908,0.45397 0,0.92592 0,1.38889 0,0.7716 0,1.54321 0,2.31481 0,1.23457 0,2.46914 0,3.7037 0,0.46297 0,0.92593 0,1.38889 0,0.15432 -0.069,0.32494 0,0.46297 0.0976,0.1952 0.3419,0.28137 0.46296,0.46296 1.0479,1.57185 -0.20397,0.86635 1.38889,2.77778 0.41915,0.50297 1.02571,0.84412 1.38889,1.38889 0.2707,0.40604 0.30864,0.92592 0.46296,1.38888 0.15432,0.46297 0.34461,0.91546 0.46297,1.38889 0.0374,0.14972 0,0.30865 0,0.46297" transform="translate(0,752.36218)"/><path style="fill:none;stroke:#000;stroke-width:1px;stroke-linecap:butt;stroke-linejoin:miter;stroke-opacity:1" id="path3188" d="m 270.23919,144.01093 -1.96419,3.10996 4.5831,-0.32736 z" transform="translate(0,752.36218)"/><text style="font-size:40px;font-style:normal;font-weight:400;line-height:125%;letter-spacing:0;word-spacing:0;fill:#000;fill-opacity:1;stroke:none;font-family:Sans" id="text3190" x="255.093" y="964.399" xml:space="preserve"><tspan id="tspan3192" x="255.093" y="964.399" style="font-size:20px">r<tspan style="font-size:65.00091553%;baseline-shift:super" id="tspan3196">OP</tspan></tspan></text><path style="fill:none;stroke:#000;stroke-width:1px;stroke-linecap:butt;stroke-linejoin:miter;stroke-opacity:1" id="path3198" d="m 255.09259,214.35185 7.40741,0 z" transform="translate(0,752.36218)"/></g></svg>