<svg xmlns="http://www.w3.org/2000/svg" xmlns:svg="http://www.w3.org/2000/svg" id="svg4068" width="450" height="300" version="1.1"><metadata id="metadata4073"/><g id="layer1" transform="translate(0,-752.36218)"><g style="fill:#fff;stroke:#000;stroke-opacity:1" id="g4078"><path style="fill:#fff;fill-rule:evenodd;stroke:#000;stroke-width:2.08285785;stroke-opacity:1" id="path4088" d="m 68.79313,940.78032 68.76553,45.7158 104.27949,-28.94823 -84.93158,-34.45798 z"/><path style="fill:#fff;fill-rule:evenodd;stroke:#000;stroke-width:2.08285785;stroke-opacity:1" id="path4080" d="m 68.79313,872.00337 0,68.77695 88.11344,-17.69041 0,-61.59195 z"/><path style="fill:#fff;fill-rule:evenodd;stroke:#000;stroke-width:2.08285785;stroke-opacity:1" id="path4090" d="m 156.90657,861.49796 84.93158,16.68744 0,79.36249 -84.93158,-34.45798 z"/><path style="fill:#fff;fill-rule:evenodd;stroke:#000;stroke-width:2.08285785;stroke-opacity:1" id="path4082" d="m 68.79313,872.00337 68.76553,22.78562 104.27949,-16.60359 -84.93158,-16.68744 z"/><path style="fill:#fff;fill-rule:evenodd;stroke:#000;stroke-width:2.08285785;stroke-opacity:1" id="path4086" d="m 137.55866,894.78899 0,91.70713 104.27949,-28.94823 0,-79.36249 z"/><path style="fill:#fff;fill-rule:evenodd;stroke:#000;stroke-width:2.08285785;stroke-opacity:1" id="path4084" d="m 68.79313,872.00337 68.76553,22.78562 0,91.70713 -68.76553,-45.7158 z"/></g><path id="path3049" d="M 70.036027,871.82543 97.072075,818.53516 z" style="fill:none;stroke:#000;stroke-width:2.08285785px;stroke-linecap:butt;stroke-linejoin:miter;stroke-opacity:1"/><path style="fill:none;stroke:#000;stroke-width:2.08285785px;stroke-linecap:butt;stroke-linejoin:miter;stroke-opacity:1" id="path3051" d="m 156.55137,859.98316 27.03604,-53.29027 z"/><path id="path3053" d="M 95.720265,817.54831 183.58741,806.69288" style="fill:none;stroke:#000;stroke-width:2.08285785px;stroke-linecap:butt;stroke-linejoin:miter;stroke-opacity:1"/><path id="path3055" d="m 70.425139,200.73937 38.817001,30.49908 -11.645097,-1.66359" transform="translate(0,752.36218)" style="fill:none;stroke:#000;stroke-width:1px;stroke-linecap:butt;stroke-linejoin:miter;stroke-opacity:1"/><path id="path3057" d="m 60.443623,183.54898 -1.663586,-50.4621 -4.990758,12.19963" transform="translate(0,752.36218)" style="fill:none;stroke:#000;stroke-width:1px;stroke-linecap:butt;stroke-linejoin:miter;stroke-opacity:1"/><path id="path3059" d="M 68.207024,104.80591 85.397412,73.752311 75.970425,80.406654" transform="translate(0,752.36218)" style="fill:none;stroke:#000;stroke-width:1px;stroke-linecap:butt;stroke-linejoin:miter;stroke-opacity:1"/><path id="path3061" d="m 102.5878,59.334566 59.33457,-9.426987 -13.86322,-3.327172" transform="translate(0,752.36218)" style="fill:none;stroke:#000;stroke-width:1px;stroke-linecap:butt;stroke-linejoin:miter;stroke-opacity:1"/><path id="path3065" d="M 90.38817,125.32348 C 91.104035,113.18857 91.369249,104.3245 84.842884,95.933457 L 90.942699,98.7061" transform="translate(0,752.36218)" style="fill:none;stroke:#000;stroke-width:1px;stroke-linecap:butt;stroke-linejoin:miter;stroke-opacity:1"/><text id="text3075" x="252.311" y="151.386" transform="translate(0,752.36218)" xml:space="preserve" style="font-size:15px;font-style:normal;font-weight:400;line-height:125%;letter-spacing:0;word-spacing:0;fill:#000;fill-opacity:1;stroke:none;font-family:Sans"><tspan style="font-size:25px" id="tspan3077" x="252.311" y="151.386">A</tspan></text><text id="text3079" x="191.312" y="75.97" transform="translate(0,752.36218)" xml:space="preserve" style="font-size:25px;font-style:normal;font-weight:400;line-height:125%;letter-spacing:0;word-spacing:0;fill:#000;fill-opacity:1;stroke:none;font-family:Sans"><tspan id="tspan3081" x="191.312" y="75.97">B</tspan></text><text id="text3083" x="113.124" y="44.362" transform="translate(0,752.36218)" xml:space="preserve" style="font-size:20px;font-style:normal;font-weight:400;line-height:125%;letter-spacing:0;word-spacing:0;fill:#000;fill-opacity:1;stroke:none;font-family:Sans"><tspan id="tspan3085" x="113.124" y="44.362">f</tspan></text><text id="text3091" x="55.453" y="89.279" transform="translate(0,752.36218)" xml:space="preserve" style="font-size:20px;font-style:normal;font-weight:400;line-height:125%;letter-spacing:0;word-spacing:0;fill:#000;fill-opacity:1;stroke:none;font-family:Sans"><tspan id="tspan3093" x="55.453" y="89.279">e</tspan></text><text id="text3099" x="46.58" y="178.004" transform="translate(0,752.36218)" xml:space="preserve" style="font-size:20px;font-style:normal;font-weight:400;line-height:125%;letter-spacing:0;word-spacing:0;fill:#000;fill-opacity:1;stroke:none;font-family:Sans"><tspan id="tspan3101" x="46.58" y="178.004">d</tspan></text><text id="text3103" x="65.434" y="227.357" transform="translate(0,752.36218)" xml:space="preserve" style="font-size:20px;font-style:normal;font-weight:400;line-height:125%;letter-spacing:0;word-spacing:0;fill:#000;fill-opacity:1;stroke:none;font-family:Sans"><tspan id="tspan3105" x="65.434" y="227.357">c</tspan></text><text id="text3107" x="336.599" y="882.122" xml:space="preserve" style="font-size:20px;font-style:normal;font-weight:400;line-height:125%;letter-spacing:0;word-spacing:0;fill:#000;fill-opacity:1;stroke:none;font-family:Sans"><tspan id="tspan3111" x="336.599" y="907.122">c x</tspan><tspan id="tspan3113" x="336.599" y="932.122">d x</tspan><tspan id="tspan3115" x="336.599" y="957.122">e </tspan><tspan id="tspan3117" x="336.599" y="982.122">f</tspan></text><path id="path3119" d="m 349.90758,986.9278 0,-99.81516 51.01664,0" style="fill:none;stroke:#000;stroke-width:1px;stroke-linecap:butt;stroke-linejoin:miter;stroke-opacity:1"/><path id="path3121" d="m 375.97043,887.11264 0,101.47874" style="fill:none;stroke:#000;stroke-width:1px;stroke-linecap:butt;stroke-linejoin:miter;stroke-opacity:1"/><path id="path3123" d="m 64.325323,230.12939 13.308688,0.55453 z" transform="translate(0,752.36218)" style="fill:none;stroke:#000;stroke-width:1px;stroke-linecap:butt;stroke-linejoin:miter;stroke-opacity:1"/><path id="path3125" d="m 44.362292,182.43993 11.090573,0 z" transform="translate(0,752.36218)" style="fill:none;stroke:#000;stroke-width:1px;stroke-linecap:butt;stroke-linejoin:miter;stroke-opacity:1"/><path id="path3127" d="m 55.452865,92.051756 13.308688,0 z" transform="translate(0,752.36218)" style="fill:none;stroke:#000;stroke-width:1px;stroke-linecap:butt;stroke-linejoin:miter;stroke-opacity:1"/><path id="path3129" d="m 111.46026,48.798521 11.6451,0 z" transform="translate(0,752.36218)" style="fill:none;stroke:#000;stroke-width:1px;stroke-linecap:butt;stroke-linejoin:miter;stroke-opacity:1"/><text id="text3131" x="331.608" y="849.405" xml:space="preserve" style="font-size:20px;font-style:normal;font-weight:400;line-height:125%;letter-spacing:0;word-spacing:0;fill:#000;fill-opacity:1;stroke:none;font-family:Sans"><tspan id="tspan3133" x="331.608" y="849.405">Fixed in:</tspan></text><text id="text3334" x="380.961" y="956.983" xml:space="preserve" style="font-size:25px;font-style:normal;font-weight:400;line-height:125%;letter-spacing:0;word-spacing:0;fill:#000;fill-opacity:1;stroke:none;font-family:Sans"><tspan style="font-size:20px" id="tspan3336" x="380.961" y="956.983">x</tspan><tspan style="font-size:20px" id="tspan3338" x="380.961" y="988.233">x</tspan></text><text id="text3340" x="353.235" y="130.314" transform="translate(0,752.36218)" xml:space="preserve" style="font-size:25px;font-style:normal;font-weight:400;line-height:125%;letter-spacing:0;word-spacing:0;fill:#000;fill-opacity:1;stroke:none;font-family:Sans"><tspan id="tspan3342" x="353.235" y="130.314">A</tspan></text><text id="text3344" x="383.179" y="128.651" transform="translate(0,752.36218)" xml:space="preserve" style="font-size:25px;font-style:normal;font-weight:400;line-height:125%;letter-spacing:0;word-spacing:0;fill:#000;fill-opacity:1;stroke:none;font-family:Sans"><tspan id="tspan3346" x="383.179" y="128.651">B</tspan></text></g></svg>