<svg xmlns="http://www.w3.org/2000/svg" xmlns:xlink="http://www.w3.org/1999/xlink" width="269pt" height="188pt" viewBox="0 0 269 188"><g id="graph0" class="graph" transform="scale(1 1) rotate(0) translate(4 184)"><title>%3</title><polygon fill="#fff" stroke="#fff" points="-4 5 -4 -184 266 -184 266 5 -4 5"/><g id="node1" class="node"><title>Symbol(x)_(1,)</title><ellipse cx="52" cy="-90" fill="none" stroke="#000" rx="52.468" ry="18"/><text x="52" y="-86.3" font-family="Times,serif" font-size="14" text-anchor="middle">Symbol(&apos;x&apos;)</text></g><g id="node2" class="node"><title>Symbol(y)_(0, 1)</title><ellipse cx="90" cy="-18" fill="none" stroke="#000" rx="52.468" ry="18"/><text x="90" y="-14.3" font-family="Times,serif" font-size="14" text-anchor="middle">Symbol(&apos;y&apos;)</text></g><g id="node3" class="node"><title>NegativeOne()_(0, 0)</title><ellipse cx="211" cy="-18" fill="none" stroke="#000" rx="50.068" ry="18"/><text x="211" y="-14.3" font-family="Times,serif" font-size="14" text-anchor="middle">Integer(-1)</text></g><g id="node4" class="node"><title>Mul(NegativeOne(), Symbol(y))_(0,)</title><ellipse cx="150" cy="-90" fill="none" stroke="#000" rx="27" ry="18"/><text x="150" y="-86.3" font-family="Times,serif" font-size="14" text-anchor="middle">Mul</text></g><g id="edge1" class="edge"><title>Mul(NegativeOne(), Symbol(y))_(0,)-&gt;Symbol(y)_(0, 1)</title><path fill="none" stroke="#000" d="M136.981,-73.811C129.366,-64.9271 119.575,-53.5041 110.904,-43.3875"/><polygon fill="#000" stroke="#000" points="113.418 -40.943 104.252 -35.628 108.103 -45.498 113.418 -40.943"/></g><g id="edge2" class="edge"><title>Mul(NegativeOne(), Symbol(y))_(0,)-&gt;NegativeOne()_(0, 0)</title><path fill="none" stroke="#000" d="M162.937,-74.1548C170.851,-65.0723 181.16,-53.243 190.199,-42.8696"/><polygon fill="#000" stroke="#000" points="192.873 -45.129 196.804 -35.291 187.596 -40.53 192.873 -45.129"/></g><g id="node5" class="node"><title>Add(Mul(NegativeOne(), Symbol(y)), Symbol(x))_()</title><ellipse cx="101" cy="-162" fill="none" stroke="#000" rx="27" ry="18"/><text x="101" y="-158.3" font-family="Times,serif" font-size="14" text-anchor="middle">Add</text></g><g id="edge3" class="edge"><title>Add(Mul(NegativeOne(), Symbol(y)), Symbol(x))_()-&gt;Symbol(x)_(1,)</title><path fill="none" stroke="#000" d="M90.1253,-145.465C84.1066,-136.867 76.4793,-125.97 69.6309,-116.187"/><polygon fill="#000" stroke="#000" points="72.475 -114.147 63.873 -107.962 66.741 -118.161 72.475 -114.147"/></g><g id="edge4" class="edge"><title>Add(Mul(NegativeOne(), Symbol(y)), Symbol(x))_()-&gt;Mul(NegativeOne(), Symbol(y))_(0,)</title><path fill="none" stroke="#000" d="M111.875,-145.465C118.155,-136.493 126.187,-125.019 133.258,-114.918"/><polygon fill="#000" stroke="#000" points="136.288 -116.691 139.156 -106.492 130.554 -112.677 136.288 -116.691"/></g></g></svg>