<svg xmlns="http://www.w3.org/2000/svg" xmlns:xlink="http://www.w3.org/1999/xlink" width="469pt" height="188pt" viewBox="0 0 469 188"><g id="graph0" class="graph" transform="scale(1 1) rotate(0) translate(4 184)"><title>%3</title><polygon fill="#fff" stroke="#fff" points="-4 5 -4 -184 466 -184 466 5 -4 5"/><g id="node1" class="node"><title>Symbol(x)_(0, 0)</title><ellipse cx="52" cy="-18" fill="none" stroke="#000" rx="52.468" ry="18"/><text x="52" y="-14.3" font-family="Times,serif" font-size="14" text-anchor="middle">Symbol(&apos;x&apos;)</text></g><g id="node2" class="node"><title>Integer(2)_(1, 1)</title><ellipse cx="415" cy="-18" fill="none" stroke="#000" rx="46.196" ry="18"/><text x="415" y="-14.3" font-family="Times,serif" font-size="14" text-anchor="middle">Integer(2)</text></g><g id="node3" class="node"><title>Symbol(y)_(0, 1)</title><ellipse cx="175" cy="-18" fill="none" stroke="#000" rx="52.468" ry="18"/><text x="175" y="-14.3" font-family="Times,serif" font-size="14" text-anchor="middle">Symbol(&apos;y&apos;)</text></g><g id="node4" class="node"><title>Symbol(x)_(1, 0)</title><ellipse cx="298" cy="-18" fill="none" stroke="#000" rx="52.468" ry="18"/><text x="298" y="-14.3" font-family="Times,serif" font-size="14" text-anchor="middle">Symbol(&apos;x&apos;)</text></g><g id="node5" class="node"><title>Mul(Symbol(x), Symbol(y))_(0,)</title><ellipse cx="175" cy="-90" fill="none" stroke="#000" rx="27" ry="18"/><text x="175" y="-86.3" font-family="Times,serif" font-size="14" text-anchor="middle">Mul</text></g><g id="edge1" class="edge"><title>Mul(Symbol(x), Symbol(y))_(0,)-&gt;Symbol(x)_(0, 0)</title><path fill="none" stroke="#000" d="M154.964,-77.5975C136.537,-67.1102 108.812,-51.3321 86.773,-38.7895"/><polygon fill="#000" stroke="#000" points="88.449 -35.716 78.026 -33.812 84.986 -41.8 88.449 -35.716"/></g><g id="edge2" class="edge"><title>Mul(Symbol(x), Symbol(y))_(0,)-&gt;Symbol(y)_(0, 1)</title><path fill="none" stroke="#000" d="M175,-71.6966C175,-63.9827 175,-54.7125 175,-46.1124"/><polygon fill="#000" stroke="#000" points="178.5 -46.104 175 -36.104 171.5 -46.104 178.5 -46.104"/></g><g id="node6" class="node"><title>Pow(Symbol(x), Integer(2))_(1,)</title><ellipse cx="298" cy="-90" fill="none" stroke="#000" rx="27" ry="18"/><text x="298" y="-86.3" font-family="Times,serif" font-size="14" text-anchor="middle">Pow</text></g><g id="edge3" class="edge"><title>Pow(Symbol(x), Integer(2))_(1,)-&gt;Symbol(x)_(1, 0)</title><path fill="none" stroke="#000" d="M298,-71.6966C298,-63.9827 298,-54.7125 298,-46.1124"/><polygon fill="#000" stroke="#000" points="301.5 -46.104 298 -36.104 294.5 -46.104 301.5 -46.104"/></g><g id="edge4" class="edge"><title>Pow(Symbol(x), Integer(2))_(1,)-&gt;Integer(2)_(1, 1)</title><path fill="none" stroke="#000" d="M317.583,-77.2836C335.15,-66.7735 361.285,-51.137 382.064,-38.7053"/><polygon fill="#000" stroke="#000" points="384.107 -41.562 390.892 -33.424 380.513 -35.554 384.107 -41.562"/></g><g id="node7" class="node"><title>Add(Mul(Symbol(x), Symbol(y)), Pow(Symbol(x), Integer(2)))_()</title><ellipse cx="236" cy="-162" fill="none" stroke="#000" rx="27" ry="18"/><text x="236" y="-158.3" font-family="Times,serif" font-size="14" text-anchor="middle">Add</text></g><g id="edge5" class="edge"><title>Add(Mul(Symbol(x), Symbol(y)), Pow(Symbol(x), Integer(2)))_()-&gt;Mul(Symbol(x), Symbol(y))_(0,)</title><path fill="none" stroke="#000" d="M223.063,-146.155C214.814,-136.689 203.965,-124.238 194.662,-113.563"/><polygon fill="#000" stroke="#000" points="197.126 -111.063 187.918 -105.824 191.849 -115.662 197.126 -111.063"/></g><g id="edge6" class="edge"><title>Add(Mul(Symbol(x), Symbol(y)), Pow(Symbol(x), Integer(2)))_()-&gt;Pow(Symbol(x), Integer(2))_(1,)</title><path fill="none" stroke="#000" d="M249.149,-146.155C257.533,-136.689 268.56,-124.238 278.016,-113.563"/><polygon fill="#000" stroke="#000" points="280.86 -115.63 284.87 -105.824 275.62 -110.989 280.86 -115.63"/></g></g></svg>