<svg xmlns="http://www.w3.org/2000/svg" xmlns:xlink="http://www.w3.org/1999/xlink" width="466pt" height="188pt" viewBox="0 0 465.99 188"><g id="graph0" class="graph" transform="scale(1 1) rotate(0) translate(4 184)"><title>%3</title><polygon fill="#fff" stroke="none" points="-4 4 -4 -184 461.991 -184 461.991 4 -4 4"/><g id="node1" class="node"><title>Symbol(x)_(0, 0)</title><ellipse cx="51.995" cy="-18" fill="none" stroke="#000" rx="51.991" ry="18"/><text x="51.995" y="-14.3" font-family="Times,serif" font-size="14" text-anchor="middle">Symbol(&apos;x&apos;)</text></g><g id="node2" class="node"><title>Integer(2)_(1, 1)</title><ellipse cx="289.995" cy="-18" fill="none" stroke="#000" rx="46.292" ry="18"/><text x="289.995" y="-14.3" font-family="Times,serif" font-size="14" text-anchor="middle">Integer(2)</text></g><g id="node3" class="node"><title>Symbol(y)_(0, 1)</title><ellipse cx="173.995" cy="-18" fill="none" stroke="#000" rx="51.991" ry="18"/><text x="173.995" y="-14.3" font-family="Times,serif" font-size="14" text-anchor="middle">Symbol(&apos;y&apos;)</text></g><g id="node4" class="node"><title>Symbol(x)_(1, 0)</title><ellipse cx="405.995" cy="-18" fill="none" stroke="#000" rx="51.991" ry="18"/><text x="405.995" y="-14.3" font-family="Times,serif" font-size="14" text-anchor="middle">Symbol(&apos;x&apos;)</text></g><g id="node5" class="node"><title>Mul(Symbol(x), Symbol(y))_(0,)</title><ellipse cx="173.995" cy="-90" fill="none" stroke="#000" rx="27" ry="18"/><text x="173.995" y="-86.3" font-family="Times,serif" font-size="14" text-anchor="middle">Mul</text></g><g id="edge1" class="edge"><title>Mul(Symbol(x), Symbol(y))_(0,)-&gt;Symbol(x)_(0, 0)</title><path fill="none" stroke="#000" d="M154.122,-77.5975C135.845,-67.1102 108.346,-51.3321 86.4856,-38.7895"/><polygon fill="#000" stroke="#000" points="88.226 -35.753 77.81 -33.812 84.742 -41.824 88.226 -35.753"/></g><g id="edge2" class="edge"><title>Mul(Symbol(x), Symbol(y))_(0,)-&gt;Symbol(y)_(0, 1)</title><path fill="none" stroke="#000" d="M173.995,-71.6966C173.995,-63.9827 173.995,-54.7125 173.995,-46.1124"/><polygon fill="#000" stroke="#000" points="177.495 -46.104 173.995 -36.104 170.495 -46.104 177.495 -46.104"/></g><g id="node6" class="node"><title>Pow(Symbol(x), Integer(2))_(1,)</title><ellipse cx="289.995" cy="-90" fill="none" stroke="#000" rx="27" ry="18"/><text x="289.995" y="-86.3" font-family="Times,serif" font-size="14" text-anchor="middle">Pow</text></g><g id="edge4" class="edge"><title>Pow(Symbol(x), Integer(2))_(1,)-&gt;Integer(2)_(1, 1)</title><path fill="none" stroke="#000" d="M289.995,-71.6966C289.995,-63.9827 289.995,-54.7125 289.995,-46.1124"/><polygon fill="#000" stroke="#000" points="293.495 -46.104 289.995 -36.104 286.495 -46.104 293.495 -46.104"/></g><g id="edge3" class="edge"><title>Pow(Symbol(x), Integer(2))_(1,)-&gt;Symbol(x)_(1, 0)</title><path fill="none" stroke="#000" d="M309.411,-77.2836C326.603,-66.9091 352.072,-51.5397 372.541,-39.1881"/><polygon fill="#000" stroke="#000" points="374.503 -42.092 381.256 -33.929 370.886 -36.099 374.503 -42.092"/></g><g id="node7" class="node"><title>Add(Mul(Symbol(x), Symbol(y)), Pow(Symbol(x), Integer(2)))_()</title><ellipse cx="231.995" cy="-162" fill="none" stroke="#000" rx="27" ry="18"/><text x="231.995" y="-158.3" font-family="Times,serif" font-size="14" text-anchor="middle">Add</text></g><g id="edge5" class="edge"><title>Add(Mul(Symbol(x), Symbol(y)), Pow(Symbol(x), Integer(2)))_()-&gt;Mul(Symbol(x), Symbol(y))_(0,)</title><path fill="none" stroke="#000" d="M219.41,-145.811C211.734,-136.546 201.769,-124.52 193.131,-114.094"/><polygon fill="#000" stroke="#000" points="195.631 -111.626 186.556 -106.159 190.241 -116.093 195.631 -111.626"/></g><g id="edge6" class="edge"><title>Add(Mul(Symbol(x), Symbol(y)), Pow(Symbol(x), Integer(2)))_()-&gt;Pow(Symbol(x), Integer(2))_(1,)</title><path fill="none" stroke="#000" d="M244.581,-145.811C252.257,-136.546 262.221,-124.52 270.86,-114.094"/><polygon fill="#000" stroke="#000" points="273.75 -116.093 277.435 -106.159 268.36 -111.626 273.75 -116.093"/></g></g></svg>