<svg xmlns="http://www.w3.org/2000/svg" xmlns:xlink="http://www.w3.org/1999/xlink" width="715pt" height="332pt" viewBox="0 0 715.14 332"><g id="graph0" class="graph" transform="scale(1 1) rotate(0) translate(4 328)"><title>%3</title><polygon fill="#fff" stroke="none" points="-4 4 -4 -328 711.141 -328 711.141 4 -4 4"/><g id="node1" class="node"><title>Half()_(0, 0)</title><ellipse cx="297.995" cy="-162" fill="none" stroke="#000" rx="59.59" ry="18"/><text x="297.995" y="-158.3" font-family="Times,serif" font-size="14" text-anchor="middle">Rational(1, 2)</text></g><g id="node2" class="node"><title>Symbol(y)_(2, 0)</title><ellipse cx="51.995" cy="-162" fill="none" stroke="#000" rx="51.991" ry="18"/><text x="51.995" y="-158.3" font-family="Times,serif" font-size="14" text-anchor="middle">Symbol(&apos;y&apos;)</text></g><g id="node3" class="node"><title>Symbol(x)_(1, 1, 0)</title><ellipse cx="544.995" cy="-90" fill="none" stroke="#000" rx="51.991" ry="18"/><text x="544.995" y="-86.3" font-family="Times,serif" font-size="14" text-anchor="middle">Symbol(&apos;x&apos;)</text></g><g id="node4" class="node"><title>Integer(2)_(1, 1, 1)</title><ellipse cx="660.995" cy="-90" fill="none" stroke="#000" rx="46.292" ry="18"/><text x="660.995" y="-86.3" font-family="Times,serif" font-size="14" text-anchor="middle">Integer(2)</text></g><g id="node5" class="node"><title>NegativeOne()_(2, 1)</title><ellipse cx="170.995" cy="-162" fill="none" stroke="#000" rx="48.993" ry="18"/><text x="170.995" y="-158.3" font-family="Times,serif" font-size="14" text-anchor="middle">Integer(-1)</text></g><g id="node6" class="node"><title>NegativeOne()_(1, 0)</title><ellipse cx="496.995" cy="-162" fill="none" stroke="#000" rx="48.993" ry="18"/><text x="496.995" y="-158.3" font-family="Times,serif" font-size="14" text-anchor="middle">Integer(-1)</text></g><g id="node7" class="node"><title>Symbol(y)_(0, 1, 0, 1)</title><ellipse cx="341.995" cy="-18" fill="none" stroke="#000" rx="51.991" ry="18"/><text x="341.995" y="-14.3" font-family="Times,serif" font-size="14" text-anchor="middle">Symbol(&apos;y&apos;)</text></g><g id="node8" class="node"><title>Symbol(x)_(0, 1, 0, 0)</title><ellipse cx="463.995" cy="-18" fill="none" stroke="#000" rx="51.991" ry="18"/><text x="463.995" y="-14.3" font-family="Times,serif" font-size="14" text-anchor="middle">Symbol(&apos;x&apos;)</text></g><g id="node9" class="node"><title>Pow(Symbol(x), Integer(2))_(1, 1)</title><ellipse cx="590.995" cy="-162" fill="none" stroke="#000" rx="27" ry="18"/><text x="590.995" y="-158.3" font-family="Times,serif" font-size="14" text-anchor="middle">Pow</text></g><g id="edge2" class="edge"><title>Pow(Symbol(x), Integer(2))_(1, 1)-&gt;Symbol(x)_(1, 1, 0)</title><path fill="none" stroke="#000" d="M580.557,-145.116C574.956,-136.592 567.921,-125.886 561.589,-116.251"/><polygon fill="#000" stroke="#000" points="564.45 -114.232 556.034 -107.797 558.6 -118.077 564.45 -114.232"/></g><g id="edge3" class="edge"><title>Pow(Symbol(x), Integer(2))_(1, 1)-&gt;Integer(2)_(1, 1, 1)</title><path fill="none" stroke="#000" d="M605.499,-146.496C614.87,-137.125 627.267,-124.728 637.967,-114.028"/><polygon fill="#000" stroke="#000" points="640.449 -116.496 645.046 -106.95 635.5 -111.546 640.449 -116.496"/></g><g id="node10" class="node"><title>Pow(Symbol(y), NegativeOne())_(2,)</title><ellipse cx="170.995" cy="-234" fill="none" stroke="#000" rx="27" ry="18"/><text x="170.995" y="-230.3" font-family="Times,serif" font-size="14" text-anchor="middle">Pow</text></g><g id="edge1" class="edge"><title>Pow(Symbol(y), NegativeOne())_(2,)-&gt;Symbol(y)_(2, 0)</title><path fill="none" stroke="#000" d="M151.345,-221.441C133.67,-211.044 107.311,-195.539 86.1851,-183.112"/><polygon fill="#000" stroke="#000" points="87.886 -180.051 77.492 -177.998 84.337 -186.085 87.886 -180.051"/></g><g id="edge4" class="edge"><title>Pow(Symbol(y), NegativeOne())_(2,)-&gt;NegativeOne()_(2, 1)</title><path fill="none" stroke="#000" d="M170.995,-215.697C170.995,-207.983 170.995,-198.712 170.995,-190.112"/><polygon fill="#000" stroke="#000" points="174.495 -190.104 170.995 -180.104 167.495 -190.104 174.495 -190.104"/></g><g id="node11" class="node"><title>Mul(Symbol(x), Symbol(y))_(0, 1, 0)</title><ellipse cx="402.995" cy="-90" fill="none" stroke="#000" rx="27" ry="18"/><text x="402.995" y="-86.3" font-family="Times,serif" font-size="14" text-anchor="middle">Mul</text></g><g id="edge6" class="edge"><title>Mul(Symbol(x), Symbol(y))_(0, 1, 0)-&gt;Symbol(y)_(0, 1, 0, 1)</title><path fill="none" stroke="#000" d="M390.059,-74.1548C382.332,-65.288 372.324,-53.8033 363.442,-43.6111"/><polygon fill="#000" stroke="#000" points="365.834 -41.029 356.626 -35.789 360.557 -45.628 365.834 -41.029"/></g><g id="edge5" class="edge"><title>Mul(Symbol(x), Symbol(y))_(0, 1, 0)-&gt;Symbol(x)_(0, 1, 0, 0)</title><path fill="none" stroke="#000" d="M415.932,-74.1548C423.659,-65.288 433.667,-53.8033 442.549,-43.6111"/><polygon fill="#000" stroke="#000" points="445.434 -45.628 449.365 -35.789 440.156 -41.029 445.434 -45.628"/></g><g id="node12" class="node"><title>sin(Mul(Symbol(x), Symbol(y)))_(0, 1)</title><ellipse cx="402.995" cy="-162" fill="none" stroke="#000" rx="27" ry="18"/><text x="402.995" y="-158.3" font-family="Times,serif" font-size="14" text-anchor="middle">sin</text></g><g id="edge9" class="edge"><title>sin(Mul(Symbol(x), Symbol(y)))_(0, 1)-&gt;Mul(Symbol(x), Symbol(y))_(0, 1, 0)</title><path fill="none" stroke="#000" d="M402.995,-143.697C402.995,-135.983 402.995,-126.712 402.995,-118.112"/><polygon fill="#000" stroke="#000" points="406.495 -118.104 402.995 -108.104 399.495 -118.104 406.495 -118.104"/></g><g id="node13" class="node"><title>Mul(Half(), sin(Mul(Symbol(x), Symbol(y))))_(0,)</title><ellipse cx="349.995" cy="-234" fill="none" stroke="#000" rx="27" ry="18"/><text x="349.995" y="-230.3" font-family="Times,serif" font-size="14" text-anchor="middle">Mul</text></g><g id="edge7" class="edge"><title>Mul(Half(), sin(Mul(Symbol(x), Symbol(y))))_(0,)-&gt;Half()_(0, 0)</title><path fill="none" stroke="#000" d="M338.455,-217.465C332.068,-208.867 323.973,-197.97 316.706,-188.187"/><polygon fill="#000" stroke="#000" points="319.368 -185.902 310.596 -179.962 313.749 -190.076 319.368 -185.902"/></g><g id="edge11" class="edge"><title>Mul(Half(), sin(Mul(Symbol(x), Symbol(y))))_(0,)-&gt;sin(Mul(Symbol(x), Symbol(y)))_(0, 1)</title><path fill="none" stroke="#000" d="M361.758,-217.465C368.62,-208.402 377.414,-196.786 385.118,-186.612"/><polygon fill="#000" stroke="#000" points="388.02 -188.577 391.266 -178.492 382.439 -184.352 388.02 -188.577"/></g><g id="node14" class="node"><title>Mul(NegativeOne(), Pow(Symbol(x), Integer(2)))_(1,)</title><ellipse cx="496.995" cy="-234" fill="none" stroke="#000" rx="27" ry="18"/><text x="496.995" y="-230.3" font-family="Times,serif" font-size="14" text-anchor="middle">Mul</text></g><g id="edge8" class="edge"><title>Mul(NegativeOne(), Pow(Symbol(x), Integer(2)))_(1,)-&gt;NegativeOne()_(1, 0)</title><path fill="none" stroke="#000" d="M496.995,-215.697C496.995,-207.983 496.995,-198.712 496.995,-190.112"/><polygon fill="#000" stroke="#000" points="500.495 -190.104 496.995 -180.104 493.495 -190.104 500.495 -190.104"/></g><g id="edge10" class="edge"><title>Mul(NegativeOne(), Pow(Symbol(x), Integer(2)))_(1,)-&gt;Pow(Symbol(x), Integer(2))_(1, 1)</title><path fill="none" stroke="#000" d="M514.676,-219.834C528.946,-209.207 549.219,-194.11 565.284,-182.147"/><polygon fill="#000" stroke="#000" points="567.782 -184.651 573.712 -175.871 563.601 -179.036 567.782 -184.651"/></g><g id="node15" class="node"><title>Add(Mul(Half(), sin(Mul(Symbol(x), Symbol(y)))), Mul(NegativeOne(), Pow(Symbol(x), Integer(2))), Pow(Symbol(y), NegativeOne()))_()</title><ellipse cx="349.995" cy="-306" fill="none" stroke="#000" rx="27" ry="18"/><text x="349.995" y="-302.3" font-family="Times,serif" font-size="14" text-anchor="middle">Add</text></g><g id="edge12" class="edge"><title>Add(Mul(Half(), sin(Mul(Symbol(x), Symbol(y)))), Mul(NegativeOne(), Pow(Symbol(x), Integer(2))), Pow(Symbol(y), NegativeOne()))_()-&gt;Pow(Symbol(y), NegativeOne())_(2,)</title><path fill="none" stroke="#000" d="M327.325,-296.134C295.938,-283.86 239.076,-261.624 203.267,-247.62"/><polygon fill="#000" stroke="#000" points="204.352 -244.286 193.764 -243.904 201.802 -250.806 204.352 -244.286"/></g><g id="edge13" class="edge"><title>Add(Mul(Half(), sin(Mul(Symbol(x), Symbol(y)))), Mul(NegativeOne(), Pow(Symbol(x), Integer(2))), Pow(Symbol(y), NegativeOne()))_()-&gt;Mul(Half(), sin(Mul(Symbol(x), Symbol(y))))_(0,)</title><path fill="none" stroke="#000" d="M349.995,-287.697C349.995,-279.983 349.995,-270.712 349.995,-262.112"/><polygon fill="#000" stroke="#000" points="353.495 -262.104 349.995 -252.104 346.495 -262.104 353.495 -262.104"/></g><g id="edge14" class="edge"><title>Add(Mul(Half(), sin(Mul(Symbol(x), Symbol(y)))), Mul(NegativeOne(), Pow(Symbol(x), Integer(2))), Pow(Symbol(y), NegativeOne()))_()-&gt;Mul(NegativeOne(), Pow(Symbol(x), Integer(2)))_(1,)</title><path fill="none" stroke="#000" d="M371.37,-294.821C396.41,-282.898 438.078,-263.056 466.505,-249.519"/><polygon fill="#000" stroke="#000" points="468.071 -252.65 475.595 -245.191 465.061 -246.33 468.071 -252.65"/></g></g></svg>