<svg xmlns="http://www.w3.org/2000/svg" xmlns:xlink="http://www.w3.org/1999/xlink" width="266pt" height="188pt" viewBox="0 0 265.74 188"><g id="graph0" class="graph" transform="scale(1 1) rotate(0) translate(4 184)"><title>%3</title><polygon fill="#fff" stroke="none" points="-4 4 -4 -184 261.741 -184 261.741 4 -4 4"/><g id="node1" class="node"><title>Symbol(x)_(1,)</title><ellipse cx="51.995" cy="-90" fill="none" stroke="#000" rx="51.991" ry="18"/><text x="51.995" y="-86.3" font-family="Times,serif" font-size="14" text-anchor="middle">Symbol(&apos;x&apos;)</text></g><g id="node2" class="node"><title>Symbol(y)_(0, 1)</title><ellipse cx="89.995" cy="-18" fill="none" stroke="#000" rx="51.991" ry="18"/><text x="89.995" y="-14.3" font-family="Times,serif" font-size="14" text-anchor="middle">Symbol(&apos;y&apos;)</text></g><g id="node3" class="node"><title>NegativeOne()_(0, 0)</title><ellipse cx="208.995" cy="-18" fill="none" stroke="#000" rx="48.993" ry="18"/><text x="208.995" y="-14.3" font-family="Times,serif" font-size="14" text-anchor="middle">Integer(-1)</text></g><g id="node4" class="node"><title>Mul(NegativeOne(), Symbol(y))_(0,)</title><ellipse cx="148.995" cy="-90" fill="none" stroke="#000" rx="27" ry="18"/><text x="148.995" y="-86.3" font-family="Times,serif" font-size="14" text-anchor="middle">Mul</text></g><g id="edge1" class="edge"><title>Mul(NegativeOne(), Symbol(y))_(0,)-&gt;Symbol(y)_(0, 1)</title><path fill="none" stroke="#000" d="M136.193,-73.811C128.705,-64.9271 119.077,-53.5041 110.551,-43.3875"/><polygon fill="#000" stroke="#000" points="113.131 -41.019 104.01 -35.628 107.779 -45.53 113.131 -41.019"/></g><g id="edge2" class="edge"><title>Mul(NegativeOne(), Symbol(y))_(0,)-&gt;NegativeOne()_(0, 0)</title><path fill="none" stroke="#000" d="M162.014,-73.811C169.629,-64.9271 179.42,-53.5041 188.092,-43.3875"/><polygon fill="#000" stroke="#000" points="190.892 -45.498 194.743 -35.628 185.578 -40.943 190.892 -45.498"/></g><g id="node5" class="node"><title>Add(Mul(NegativeOne(), Symbol(y)), Symbol(x))_()</title><ellipse cx="99.995" cy="-162" fill="none" stroke="#000" rx="27" ry="18"/><text x="99.995" y="-158.3" font-family="Times,serif" font-size="14" text-anchor="middle">Add</text></g><g id="edge3" class="edge"><title>Add(Mul(NegativeOne(), Symbol(y)), Symbol(x))_()-&gt;Symbol(x)_(1,)</title><path fill="none" stroke="#000" d="M89.1034,-145.116C83.2585,-136.592 75.9173,-125.886 69.3105,-116.251"/><polygon fill="#000" stroke="#000" points="72.055 -114.065 63.514 -107.797 66.282 -118.024 72.055 -114.065"/></g><g id="edge4" class="edge"><title>Add(Mul(NegativeOne(), Symbol(y)), Symbol(x))_()-&gt;Mul(NegativeOne(), Symbol(y))_(0,)</title><path fill="none" stroke="#000" d="M110.87,-145.465C117.15,-136.493 125.182,-125.019 132.253,-114.918"/><polygon fill="#000" stroke="#000" points="135.284 -116.691 138.151 -106.492 129.549 -112.677 135.284 -116.691"/></g></g></svg>