<svg xmlns="http://www.w3.org/2000/svg" xmlns:svg="http://www.w3.org/2000/svg" id="svg3601" width="250" height="250" version="1.1"><metadata id="metadata3606"/><g id="layer1" transform="translate(0,-802.36218)"><path style="fill:none;stroke:#000;stroke-width:1px;stroke-linecap:butt;stroke-linejoin:miter;stroke-opacity:1" id="path3609" d="m 70.205479,40.667808 2.996576,-8.133561 0,103.167803 -48.80137,55.65069 0.856164,-5.56507" transform="translate(0,802.36218)"/><path style="fill:none;stroke:#000;stroke-width:1px;stroke-linecap:butt;stroke-linejoin:miter;stroke-opacity:1" id="path3611" d="m 56.078767,194.7774 2.140411,5.13698 14.554795,-63.78424 78.767127,22.26027 -3.85274,-4.7089" transform="translate(0,802.36218)"/><path style="fill:none;stroke:#000;stroke-width:1px;stroke-linecap:butt;stroke-linejoin:miter;stroke-opacity:1" id="path3613" d="m 73.630137,136.13014 80.479453,6.84931 -4.28082,-3.85274 0,0 0,0" transform="translate(0,802.36218)"/><text style="font-size:20px;font-style:normal;font-weight:400;line-height:125%;letter-spacing:0;word-spacing:0;fill:#000;fill-opacity:1;stroke:none;font-family:Sans" id="text3615" x="34.675" y="151.969" transform="translate(0,802.36218)" xml:space="preserve"><tspan id="tspan3617" x="34.675" y="151.969">A</tspan></text><text style="font-size:20px;font-style:normal;font-weight:400;line-height:125%;letter-spacing:0;word-spacing:0;fill:#000;fill-opacity:1;stroke:none;font-family:Sans" id="text3619" x="121.147" y="126.712" transform="translate(0,802.36218)" xml:space="preserve"><tspan id="tspan3621" x="121.147" y="126.712">B</tspan></text><path style="fill:none;stroke:#000;stroke-width:1px;stroke-linecap:butt;stroke-linejoin:miter;stroke-opacity:1" id="path3627" d="m 47.089041,164.38356 c 5.568995,0.58794 11.954606,1.77575 16.695206,2.14041 -1.281652,1.51234 -3.424658,1.99772 -5.136987,2.99658" transform="translate(0,802.36218)"/><path style="fill:none;stroke:#000;stroke-width:1px;stroke-linecap:butt;stroke-linejoin:miter;stroke-opacity:1" id="path3629" d="m 114.72603,147.68836 c 0.93988,-2.61069 2.10018,-5.60049 2.56849,-6.84932 1.13211,0.58927 1.14155,2.28311 1.71233,3.42466" transform="translate(0,802.36218)"/><text style="font-size:20px;font-style:normal;font-weight:400;line-height:125%;letter-spacing:0;word-spacing:0;fill:#000;fill-opacity:1;stroke:none;font-family:Sans" id="text3631" x="107.877" y="963.749" xml:space="preserve"><tspan id="tspan3633" x="107.877" y="963.749" style="font-size:14px">θ</tspan></text><text id="text3635" x="48.801" y="985.153" xml:space="preserve" style="font-size:20px;font-style:normal;font-weight:400;line-height:125%;letter-spacing:0;word-spacing:0;fill:#000;fill-opacity:1;stroke:none;font-family:Sans"><tspan style="font-size:14px" id="tspan3637" x="48.801" y="985.153">θ</tspan></text><text style="font-size:16px;font-style:normal;font-weight:400;line-height:125%;letter-spacing:0;word-spacing:0;fill:#000;fill-opacity:1;stroke:none;font-family:Sans" id="text3639" x="81.764" y="24.829" transform="translate(0,802.36218)" xml:space="preserve"><tspan id="tspan3641" x="81.764" y="24.829">a<tspan style="font-size:65.00091553%;baseline-shift:sub" id="tspan3661">z</tspan></tspan><tspan id="tspan3643" x="81.764" y="44.829">b<tspan style="font-size:65%;baseline-shift:sub" id="tspan3663">z</tspan></tspan></text><text style="font-size:16px;font-style:normal;font-weight:400;line-height:125%;letter-spacing:0;word-spacing:0;fill:#000;fill-opacity:1;stroke:none;font-family:Sans" id="text3649" x="13.271" y="201.627" transform="translate(0,802.36218)" xml:space="preserve"><tspan id="tspan3651" x="13.271" y="201.627">a<tspan style="font-size:65%;baseline-shift:sub" id="tspan3653">x</tspan></tspan></text><text style="font-size:16px;font-style:normal;font-weight:400;line-height:125%;letter-spacing:0;word-spacing:0;fill:#000;fill-opacity:1;stroke:none;font-family:Sans" id="text3655" x="59.503" y="1010.41" xml:space="preserve"><tspan id="tspan3657" x="59.503" y="1010.41">b<tspan style="font-size:65.00091553%;baseline-shift:sub" id="tspan3659">x</tspan></tspan></text><text style="font-size:16px;font-style:normal;font-weight:400;line-height:125%;letter-spacing:0;word-spacing:0;fill:#000;fill-opacity:1;stroke:none;font-family:Sans" id="text3665" x="157.106" y="170.377" transform="translate(0,802.36218)" xml:space="preserve"><tspan id="tspan3667" x="157.106" y="170.377">a<tspan style="font-size:65%;baseline-shift:sub" id="tspan3669">y</tspan></tspan></text><text style="font-size:16px;font-style:normal;font-weight:400;line-height:125%;letter-spacing:0;word-spacing:0;fill:#000;fill-opacity:1;stroke:none;font-family:Sans" id="text3671" x="158.819" y="139.983" transform="translate(0,802.36218)" xml:space="preserve"><tspan id="tspan3673" x="158.819" y="139.983">b<tspan style="font-size:65%;baseline-shift:sub" id="tspan3675">y</tspan></tspan></text><path style="fill:none;stroke:#000;stroke-width:1px;stroke-linecap:butt;stroke-linejoin:miter;stroke-opacity:1" id="path3677" d="m 14.554795,190.92466 4.280821,-3.42466 3.424658,3.42466" transform="translate(0,802.36218)"/><path style="fill:none;stroke:#000;stroke-width:1px;stroke-linecap:butt;stroke-linejoin:miter;stroke-opacity:1" id="path3679" d="m 61.215753,197.34589 3.85274,-4.7089 4.280822,4.28082" transform="translate(0,802.36218)"/><path style="fill:none;stroke:#000;stroke-width:1px;stroke-linecap:butt;stroke-linejoin:miter;stroke-opacity:1" id="path3681" d="m 157.10616,158.81849 3.42466,-3.42465 2.99658,2.99657" transform="translate(0,802.36218)"/><path style="fill:none;stroke:#000;stroke-width:1px;stroke-linecap:butt;stroke-linejoin:miter;stroke-opacity:1" id="path3683" d="m 161.81507,125.85616 3.42466,-2.56849 2.99657,2.56849" transform="translate(0,802.36218)"/><path style="fill:none;stroke:#000;stroke-width:1px;stroke-linecap:butt;stroke-linejoin:miter;stroke-opacity:1" id="path3685" d="M 86.900685,33.390411 90.753425,31.25 93.75,33.390411" transform="translate(0,802.36218)"/><path style="fill:none;stroke:#000;stroke-width:1px;stroke-linecap:butt;stroke-linejoin:miter;stroke-opacity:1" id="path3687" d="m 82.619863,14.126712 5.136986,-4.2808216 4.280822,3.8527396 0,0 0,0 0,0 0,0" transform="translate(0,802.36218)"/><path style="fill:none;stroke:#000;stroke-width:1.0706619px;stroke-linecap:butt;stroke-linejoin:miter;stroke-opacity:1" id="path3689" d="m 129.7089,943.35759 -1.28424,-11.28651 0,0"/><path style="fill:none;stroke:#000;stroke-width:1.02848959px;stroke-linecap:butt;stroke-linejoin:miter;stroke-opacity:1" id="path3691" d="m 59.917262,953.03286 -10.188403,-6.39274 -0.485162,0"/></g></svg>