<svg xmlns="http://www.w3.org/2000/svg" xmlns:xlink="http://www.w3.org/1999/xlink" width="436" height="194pt" viewBox="0 0 327 194"><g id="graph1" class="graph" transform="scale(1 1) rotate(0) translate(4 190)"><title>_anonymous_0</title><polygon fill="#fff" stroke="#fff" points="-4 5 -4 -190 324 -190 324 5 -4 5"/><g id="node1" class="node"><title>Symbol(x)_(0,)</title><ellipse cx="65" cy="-93" fill="none" stroke="#000" rx="65.054" ry="18.385"/><text x="65" y="-89.4" font-family="Times Roman,serif" font-size="14" text-anchor="middle">Symbol(&apos;x&apos;)</text></g><g id="node2" class="node"><title>Symbol(y)_(1, 0)</title><ellipse cx="106" cy="-19" fill="none" stroke="#000" rx="65.054" ry="18.385"/><text x="106" y="-15.4" font-family="Times Roman,serif" font-size="14" text-anchor="middle">Symbol(&apos;y&apos;)</text></g><g id="node3" class="node"><title>NegativeOne()_(1, 1)</title><ellipse cx="254" cy="-19" fill="none" stroke="#000" rx="65.054" ry="18.385"/><text x="254" y="-15.4" font-family="Times Roman,serif" font-size="14" text-anchor="middle">Integer(-1)</text></g><g id="node4" class="node"><title>Pow(Symbol(y), NegativeOne())_(1,)</title><ellipse cx="180" cy="-93" fill="none" stroke="#000" rx="32.026" ry="18.385"/><text x="180" y="-89.4" font-family="Times Roman,serif" font-size="14" text-anchor="middle">Pow</text></g><g id="edge2" class="edge"><title>Pow(Symbol(y), NegativeOne())_(1,)-&gt;Symbol(y)_(1, 0)</title><path fill="none" stroke="#000" d="M163.943,-76.9431C154.342,-67.3417 141.935,-54.9347 131.066,-44.0662"/><polygon fill="#000" stroke="#000" points="133.387 -41.437 123.841 -36.841 128.437 -46.387 133.387 -41.437"/></g><g id="edge4" class="edge"><title>Pow(Symbol(y), NegativeOne())_(1,)-&gt;NegativeOne()_(1, 1)</title><path fill="none" stroke="#000" d="M196.057,-76.9431C205.658,-67.3417 218.065,-54.9347 228.934,-44.0662"/><polygon fill="#000" stroke="#000" points="231.563 -46.387 236.159 -36.841 226.613 -41.437 231.563 -46.387"/></g><g id="node5" class="node"><title>Mul(Symbol(x), Pow(Symbol(y), NegativeOne()))_()</title><ellipse cx="122" cy="-167" fill="none" stroke="#000" rx="28.991" ry="18.385"/><text x="122" y="-163.4" font-family="Times Roman,serif" font-size="14" text-anchor="middle">Mul</text></g><g id="edge6" class="edge"><title>Mul(Symbol(x), Pow(Symbol(y), NegativeOne()))_()-&gt;Symbol(x)_(0,)</title><path fill="none" stroke="#000" d="M109.066,-150.208C102.016,-141.056 93.1335,-129.524 85.1934,-119.216"/><polygon fill="#000" stroke="#000" points="87.956 -117.067 79.081 -111.28 82.41 -121.338 87.956 -117.067"/></g><g id="edge8" class="edge"><title>Mul(Symbol(x), Pow(Symbol(y), NegativeOne()))_()-&gt;Pow(Symbol(y), NegativeOne())_(1,)</title><path fill="none" stroke="#000" d="M135.161,-150.208C142.598,-140.72 152.04,-128.673 160.339,-118.084"/><polygon fill="#000" stroke="#000" points="163.276 -120.011 166.69 -109.981 157.767 -115.693 163.276 -120.011"/></g></g></svg>