<svg xmlns="http://www.w3.org/2000/svg" xmlns:svg="http://www.w3.org/2000/svg" id="svg3807" width="700" height="350" version="1.1"><metadata id="metadata3812"/><g id="layer1" transform="translate(0,-702.36218)"><path style="fill:none;stroke:#000;stroke-width:1px;stroke-linecap:butt;stroke-linejoin:miter;stroke-opacity:1" id="path3815" d="m 152.36593,781.69972 -3.78549,-14.19558 0,125.86751 -54.889588,73.81703 0,-12.30284"/><path style="fill:none;stroke:#000;stroke-width:1px;stroke-linecap:butt;stroke-linejoin:miter;stroke-opacity:1" id="path3817" d="m 147.63407,893.37165 80.44164,50.15772 -4.73186,-10.41009"/><path style="fill:none;stroke:#000;stroke-width:1px;stroke-linecap:butt;stroke-linejoin:miter;stroke-opacity:1" id="path3819" d="m 136.2776,909.45997 16.08833,9.46373 11.35647,-16.08833"/><path style="fill:none;stroke:#000;stroke-width:1px;stroke-linecap:butt;stroke-linejoin:miter;stroke-opacity:1" id="path3821" d="m 345.42587,930.28016 -0.94637,16.08833 67.19242,-89.90536 20.82019,88.01262 2.83912,-14.19559"/><path style="fill:none;stroke:#000;stroke-width:1px;stroke-linecap:butt;stroke-linejoin:miter;stroke-opacity:1" id="path3823" d="m 410.72555,857.4095 0,-82.33439 4.73186,13.24922"/><path style="fill:none;stroke:#000;stroke-width:1px;stroke-linecap:butt;stroke-linejoin:miter;stroke-opacity:1" id="path3825" d="m 392.74448,884.85429 c 8.1065,8.50919 14.37959,6.14536 24.60568,3.78549 l -7.57098,7.57098"/><path style="fill:none;stroke:#000;stroke-width:1px;stroke-linecap:butt;stroke-linejoin:miter;stroke-opacity:1" id="path3827" d="m 552.70684,121.91011 -41.47088,67.92646 1.43003,-13.58529" transform="translate(0,702.36218)"/><path id="path3829" d="m 594.17773,834.99752 -41.47088,67.92646 1.43003,-13.58529" style="fill:none;stroke:#000;stroke-width:1px;stroke-linecap:butt;stroke-linejoin:miter;stroke-opacity:1"/><text style="font-size:14px;font-style:normal;font-weight:400;line-height:125%;letter-spacing:0;word-spacing:0;fill:#000;fill-opacity:1;stroke:none;font-family:Sans" id="text3831" x="518.386" y="236.313" transform="translate(0,702.36218)" xml:space="preserve"><tspan id="tspan3833" x="518.386" y="236.313">a x a = 0</tspan></text><text style="font-size:14px;font-style:normal;font-weight:400;line-height:125%;letter-spacing:0;word-spacing:0;fill:#000;fill-opacity:1;stroke:none;font-family:Sans" id="text3835" x="104.392" y="234.168" transform="translate(0,702.36218)" xml:space="preserve"><tspan id="tspan3837" x="104.392" y="234.168">a</tspan></text><text style="font-size:14px;font-style:normal;font-weight:400;line-height:125%;letter-spacing:0;word-spacing:0;fill:#000;fill-opacity:1;stroke:none;font-family:Sans" id="text3839" x="351.073" y="215.577" transform="translate(0,702.36218)" xml:space="preserve"><tspan id="tspan3841" x="351.073" y="215.577">a</tspan></text><text style="font-size:14px;font-style:normal;font-weight:400;line-height:125%;letter-spacing:0;word-spacing:0;fill:#000;fill-opacity:1;stroke:none;font-family:Sans" id="text3843" x="200.919" y="212.717" transform="translate(0,702.36218)" xml:space="preserve"><tspan id="tspan3845" x="200.919" y="212.717">b</tspan></text><text style="font-size:14px;font-style:normal;font-weight:400;line-height:125%;letter-spacing:0;word-spacing:0;fill:#000;fill-opacity:1;stroke:none;font-family:Sans" id="text3847" x="429.724" y="918.654" xml:space="preserve"><tspan id="tspan3849" x="429.724" y="918.654">d</tspan></text><text style="font-size:14px;font-style:normal;font-weight:400;line-height:125%;letter-spacing:0;word-spacing:0;fill:#000;fill-opacity:1;stroke:none;font-family:Sans" id="text3851" x="158.018" y="129.06" transform="translate(0,702.36218)" xml:space="preserve"><tspan id="tspan3853" x="158.018" y="129.06">c</tspan></text><text style="font-size:14px;font-style:normal;font-weight:400;line-height:125%;letter-spacing:0;word-spacing:0;fill:#000;fill-opacity:1;stroke:none;font-family:Sans" id="text3855" x="416.139" y="816.407" xml:space="preserve"><tspan id="tspan3859" x="416.139" y="816.407">c / sqrt(2)</tspan></text><text style="font-size:14px;font-style:normal;font-weight:400;line-height:125%;letter-spacing:0;word-spacing:0;fill:#000;fill-opacity:1;stroke:none;font-family:Sans" id="text3881" x="388.968" y="911.504" xml:space="preserve"><tspan id="tspan3883" x="388.968" y="911.504">45°</tspan></text><path style="fill:none;stroke:#000;stroke-width:1px;stroke-linecap:butt;stroke-linejoin:miter;stroke-opacity:1" id="path3951" d="m 156.58836,119.05005 6.43513,-3.57508 3.57508,2.86007 0,0 0,0" transform="translate(0,702.36218)"/><path style="fill:none;stroke:#000;stroke-width:1px;stroke-linecap:butt;stroke-linejoin:miter;stroke-opacity:1" id="path3953" d="m 198.77426,199.13177 6.43514,-3.57508 2.86006,2.86006" transform="translate(0,702.36218)"/><path style="fill:none;stroke:#000;stroke-width:1px;stroke-linecap:butt;stroke-linejoin:miter;stroke-opacity:1" id="path3955" d="m 348.21246,204.85189 5.00511,-4.29009 3.57508,4.29009" transform="translate(0,702.36218)"/><path style="fill:none;stroke:#000;stroke-width:1px;stroke-linecap:butt;stroke-linejoin:miter;stroke-opacity:1" id="path3957" d="m 428.29418,202.70684 5.72012,-5.72012 2.14505,6.43514" transform="translate(0,702.36218)"/><path style="fill:none;stroke:#000;stroke-width:1px;stroke-linecap:butt;stroke-linejoin:miter;stroke-opacity:1" id="path3959" d="m 414.70889,104.03473 5.72012,-4.290093 2.86006,2.860063" transform="translate(0,702.36218)"/><path style="fill:none;stroke:#000;stroke-width:1px;stroke-linecap:butt;stroke-linejoin:miter;stroke-opacity:1" id="path3961" d="m 516.95608,224.87232 4.29009,-5.72012 4.29009,5.72012" transform="translate(0,702.36218)"/><path style="fill:none;stroke:#000;stroke-width:1px;stroke-linecap:butt;stroke-linejoin:miter;stroke-opacity:1" id="path3963" d="m 542.69663,224.87232 5.72012,-4.29009 3.57508,4.29009" transform="translate(0,702.36218)"/><path style="fill:none;stroke:#000;stroke-width:1px;stroke-linecap:butt;stroke-linejoin:miter;stroke-opacity:1" id="path3965" d="m 102.96221,223.44229 5.72012,-5.00511 2.86006,5.00511" transform="translate(0,702.36218)"/></g></svg>