<svg xmlns="http://www.w3.org/2000/svg" xmlns:svg="http://www.w3.org/2000/svg" id="svg3712" width="200" height="200" version="1.1"><metadata id="metadata3717"/><g id="layer1" transform="translate(0,-852.36218)"><path id="path3720" d="m 136.93972,72.952087 8.34622,-4.945905 -115.919634,37.403398 85.007724,11.12829 -3.70942,3.09119" transform="translate(0,852.36218)" style="fill:none;stroke:#000;stroke-width:1px;stroke-linecap:butt;stroke-linejoin:miter;stroke-opacity:1"/><path id="path3722" d="m 114.37403,116.22875 30.91191,-48.531687 -0.30912,4.636786" transform="translate(0,852.36218)" style="fill:none;stroke:#000;stroke-width:1px;stroke-linecap:butt;stroke-linejoin:miter;stroke-opacity:1"/><path style="fill:none;stroke:#000;stroke-width:1px;stroke-linecap:butt;stroke-linejoin:miter;stroke-opacity:1" id="path3724" d="m 29.675421,957.77176 30.91191,-48.53168 -0.30912,4.63678"/><path id="path3728" d="M 60.587326,56.568779 144.6677,67.697063 137.86708,63.060278" transform="translate(0,852.36218)" style="fill:none;stroke:#000;stroke-width:1px;stroke-linecap:butt;stroke-linejoin:miter;stroke-opacity:1"/><text id="text3750" x="35.24" y="72.025" transform="translate(0,852.36218)" xml:space="preserve" style="font-size:14px;font-style:normal;font-weight:400;line-height:125%;letter-spacing:0;word-spacing:0;fill:#000;fill-opacity:1;stroke:none;font-family:Sans"><tspan id="tspan3752" x="35.24" y="72.025">a</tspan></text><text id="text3754" x="97.372" y="55.641" transform="translate(0,852.36218)" xml:space="preserve" style="font-size:14px;font-style:normal;font-weight:400;line-height:125%;letter-spacing:0;word-spacing:0;fill:#000;fill-opacity:1;stroke:none;font-family:Sans"><tspan id="tspan3756" x="97.372" y="55.641">b</tspan></text><text id="text3762" x="69.243" y="129.521" transform="translate(0,852.36218)" xml:space="preserve" style="font-size:14px;font-style:normal;font-weight:400;line-height:125%;letter-spacing:0;word-spacing:0;fill:#000;fill-opacity:1;stroke:none;font-family:Sans"><tspan id="tspan3764" x="69.243" y="129.521">b</tspan></text><text id="text3766" x="139.104" y="106.955" transform="translate(0,852.36218)" xml:space="preserve" style="font-size:14px;font-style:normal;font-weight:400;line-height:125%;letter-spacing:0;word-spacing:0;fill:#000;fill-opacity:1;stroke:none;font-family:Sans"><tspan id="tspan3768" x="139.104" y="106.955">a</tspan></text><text id="text3770" x="69.861" y="101.082" transform="translate(0,852.36218)" xml:space="preserve" style="font-size:14px;font-style:normal;font-weight:400;line-height:125%;letter-spacing:0;word-spacing:0;fill:#000;fill-opacity:1;stroke:none;font-family:Sans"><tspan id="tspan3772" x="69.861" y="101.082">a+b</tspan></text><path id="path3774" d="m 69.860896,131.6847 7.418857,0 z" transform="translate(0,852.36218)" style="fill:none;stroke:#000;stroke-width:1px;stroke-linecap:butt;stroke-linejoin:miter;stroke-opacity:1"/><path id="path3776" d="m 140.03091,109.73725 6.4915,0 z" transform="translate(0,852.36218)" style="fill:none;stroke:#000;stroke-width:1px;stroke-linecap:butt;stroke-linejoin:miter;stroke-opacity:1"/><path id="path3778" d="m 69.551777,102.93663 8.037095,0 z" transform="translate(0,852.36218)" style="fill:none;stroke:#000;stroke-width:1px;stroke-linecap:butt;stroke-linejoin:miter;stroke-opacity:1"/><path id="path3780" d="m 90.880989,103.24575 8.346213,0 z" transform="translate(0,852.36218)" style="fill:none;stroke:#000;stroke-width:1px;stroke-linecap:butt;stroke-linejoin:miter;stroke-opacity:1"/><path id="path3784" d="m 98.299845,57.496136 6.800615,0 z" transform="translate(0,852.36218)" style="fill:none;stroke:#000;stroke-width:1px;stroke-linecap:butt;stroke-linejoin:miter;stroke-opacity:1"/><path id="path3786" d="m 35.239567,74.188563 8.655333,0 z" transform="translate(0,852.36218)" style="fill:none;stroke:#000;stroke-width:1px;stroke-linecap:butt;stroke-linejoin:miter;stroke-opacity:1"/></g></svg>