<svg xmlns="http://www.w3.org/2000/svg" xmlns:svg="http://www.w3.org/2000/svg" id="svg3466" width="450" height="250" version="1.1"><metadata id="metadata3471"/><g id="layer1" transform="translate(0,-802.36218)"><path style="fill:none;stroke:#000;stroke-width:1px;stroke-linecap:butt;stroke-linejoin:miter;stroke-opacity:1" id="path3474" d="m 97.68421,891.09902 c 5.61127,-2.85888 19.20088,-7.36622 22.31579,0.42105 1.83535,4.58839 -2.8481,23.25717 -1.68421,24.42106 18.97192,18.97192 51.45814,-12.47969 57.26315,-29.89474 9.27328,-27.81982 -67.97868,-60.38747 -96.842098,-48.84211 -33.804179,13.52168 1.937443,57.82011 18.947368,53.89474 z"/><path style="fill:none;stroke:#000;stroke-width:1px;stroke-linecap:butt;stroke-linejoin:miter;stroke-opacity:1" id="path3476" d="m 86.315789,958.46745 c 9.165462,1.01392 11.882214,-0.85277 17.263161,-7.57895 4.80916,-6.01145 4.89548,-17.94812 11.78947,-24.84211 16.96473,-16.96472 86.51715,18.16021 59.78948,55.57895 -10.44753,14.62654 -18.43327,22.12206 -37.47369,24.84206 -40.285145,5.7551 -106.320597,-32.29933 -51.368421,-47.99995 z"/><path id="path3480" d="m 96.131577,912.57269 a 3.5,3.5 0 1 1 -7,0 3.5,3.5 0 1 1 7,0 z" transform="translate(37.473684,9.2631579)" style="fill:#000;stroke:none"/><text style="font-size:25px;font-style:normal;font-weight:400;line-height:125%;letter-spacing:0;word-spacing:0;fill:#000;fill-opacity:1;stroke:none;font-family:Sans" id="text3482" x="165.895" y="834.678" xml:space="preserve"><tspan id="tspan3484" x="165.895" y="834.678">A</tspan></text><text style="font-size:25px;font-style:normal;font-weight:400;line-height:125%;letter-spacing:0;word-spacing:0;fill:#000;fill-opacity:1;stroke:none;font-family:Sans" id="text3486" x="178.947" y="998.046" xml:space="preserve"><tspan id="tspan3488" x="178.947" y="998.046">B</tspan></text><path style="fill:none;stroke:#000;stroke-width:1px;stroke-linecap:butt;stroke-linejoin:miter;stroke-opacity:1" id="path3490" d="M 8,14.210526 8,53.789474 z" transform="translate(0,802.36218)"/><path style="fill:none;stroke:#000;stroke-width:1px;stroke-linecap:butt;stroke-linejoin:miter;stroke-opacity:1" id="path3492" d="M 8.4210526,13.789474 45.894737,14.210526 z" transform="translate(0,802.36218)"/><path style="fill:none;stroke:#000;stroke-width:1px;stroke-linecap:butt;stroke-linejoin:miter;stroke-opacity:1" id="path3494" d="M 7.5789474,47.052632 4.2105263,44.526316" transform="translate(0,802.36218)"/><path style="fill:none;stroke:#000;stroke-width:1px;stroke-linecap:butt;stroke-linejoin:miter;stroke-opacity:1" id="path3496" d="m 7.5789474,41.578947 -3.7894737,-3.368421 0,0 -0.4210526,0" transform="translate(0,802.36218)"/><path style="fill:none;stroke:#000;stroke-width:1px;stroke-linecap:butt;stroke-linejoin:miter;stroke-opacity:1" id="path3498" d="M 7.5789474,35.263158 3.3684211,31.473684" transform="translate(0,802.36218)"/><path style="fill:none;stroke:#000;stroke-width:1px;stroke-linecap:butt;stroke-linejoin:miter;stroke-opacity:1" id="path3500" d="M 8.4210526,26.842105 3.7894737,22.631579" transform="translate(0,802.36218)"/><path style="fill:none;stroke:#000;stroke-width:1px;stroke-linecap:butt;stroke-linejoin:miter;stroke-opacity:1" id="path3502" d="M 7.1578947,17.578947 3.3684211,14.210526" transform="translate(0,802.36218)"/><path style="fill:none;stroke:#000;stroke-width:1px;stroke-linecap:butt;stroke-linejoin:miter;stroke-opacity:1" id="path3504" d="m 13.052632,13.789474 -4.6315794,-5.0526319 0,0 0,-0.4210526" transform="translate(0,802.36218)"/><path style="fill:none;stroke:#000;stroke-width:1px;stroke-linecap:butt;stroke-linejoin:miter;stroke-opacity:1" id="path3506" d="M 19.789474,12.947368 16,7.4736842" transform="translate(0,802.36218)"/><path style="fill:none;stroke:#000;stroke-width:1px;stroke-linecap:butt;stroke-linejoin:miter;stroke-opacity:1" id="path3508" d="M 31.578947,13.789474 26.947368,7.0526316" transform="translate(0,802.36218)"/><path style="fill:none;stroke:#000;stroke-width:1px;stroke-linecap:butt;stroke-linejoin:miter;stroke-opacity:1" id="path3510" d="M 41.263158,13.789474 35.789474,7.0526316" transform="translate(0,802.36218)"/><text style="font-size:25px;font-style:normal;font-weight:400;line-height:125%;letter-spacing:0;word-spacing:0;fill:#000;fill-opacity:1;stroke:none;font-family:Sans" id="text3512" x="14.316" y="44.105" transform="translate(0,802.36218)" xml:space="preserve"><tspan id="tspan3514" x="14.316" y="44.105">N</tspan></text><text style="font-size:20px;font-style:normal;font-weight:400;line-height:125%;letter-spacing:0;word-spacing:0;fill:#000;fill-opacity:1;stroke:none;font-family:Sans" id="text3516" x="126.737" y="106.842" transform="translate(0,802.36218)" xml:space="preserve"><tspan id="tspan3518" x="126.737" y="106.842">P</tspan></text><text style="font-size:20px;font-style:normal;font-weight:400;line-height:125%;letter-spacing:0;word-spacing:0;fill:#000;fill-opacity:1;stroke:none;font-family:Sans" id="text3520" x="193.684" y="878.888" xml:space="preserve"><tspan id="tspan3522" x="193.684" y="878.888" style="font-size:15px">P<tspan style="font-size:65.00091553%;baseline-shift:sub" id="tspan3524">a</tspan> is the contact point on body A</tspan></text><text id="text3526" x="193.263" y="902.046" xml:space="preserve" style="font-size:20px;font-style:normal;font-weight:400;line-height:125%;letter-spacing:0;word-spacing:0;fill:#000;fill-opacity:1;stroke:none;font-family:Sans"><tspan style="font-size:15px" id="tspan3528" x="193.263" y="902.046">P<tspan style="font-size:65.00091553%;baseline-shift:sub" id="tspan3532">b</tspan> is the contact point on body B</tspan></text><text style="font-size:20px;font-style:normal;font-weight:400;line-height:125%;letter-spacing:0;word-spacing:0;fill:#000;fill-opacity:1;stroke:none;font-family:Sans" id="text3534" x="242.947" y="137.579" transform="translate(0,802.36218)" xml:space="preserve"><tspan id="tspan3536" x="242.947" y="137.579" style="font-size:14px">Rolling without slip iff:</tspan></text><text style="font-size:20px;font-style:normal;font-weight:400;line-height:125%;letter-spacing:0;word-spacing:0;fill:#000;fill-opacity:1;stroke:none;font-family:Sans" id="text3538" x="263.579" y="167.053" transform="translate(0,802.36218)" xml:space="preserve"><tspan id="tspan3540" x="263.579" y="167.053"><tspan style="font-size:65%;baseline-shift:super" id="tspan3552">N</tspan>v<tspan style="font-size:65%;baseline-shift:super" id="tspan3554">Pa</tspan> = <tspan style="font-size:65%;baseline-shift:super" id="tspan3550">N</tspan>v<tspan style="font-size:65%;baseline-shift:super" id="tspan3542">Pb</tspan></tspan></text><path style="fill:none;stroke:#000;stroke-width:1px;stroke-linecap:butt;stroke-linejoin:miter;stroke-opacity:1" id="path3578" d="m 272,169.15789 12.63158,0 z" transform="translate(0,802.36218)"/><path style="fill:none;stroke:#000;stroke-width:1px;stroke-linecap:butt;stroke-linejoin:miter;stroke-opacity:1" id="path3580" d="m 340.21053,169.57895 11.78947,0 z" transform="translate(0,802.36218)"/></g></svg>